<?xml version="1.0" encoding="UTF-8" standalone="no"?>
<!-- Created with Inkscape (http://www.inkscape.org/) -->

<svg
   version="1.1"
   id="svg1"
   width="333.33334"
   height="333.33334"
   viewBox="0 0 333.33334 333.33334"
   sodipodi:docname="LogoVetorizada.svg"
   inkscape:export-filename="LogoVetorizada.png"
   inkscape:export-xdpi="96.479996"
   inkscape:export-ydpi="96.479996"
   inkscape:version="1.3 (0e150ed6c4, 2023-07-21)"
   xmlns:inkscape="http://www.inkscape.org/namespaces/inkscape"
   xmlns:sodipodi="http://sodipodi.sourceforge.net/DTD/sodipodi-0.dtd"
   xmlns="http://www.w3.org/2000/svg"
   xmlns:svg="http://www.w3.org/2000/svg">
  <defs
     id="defs1" />
  <sodipodi:namedview
     id="namedview1"
     pagecolor="#ffffff"
     bordercolor="#666666"
     borderopacity="1.0"
     inkscape:showpageshadow="2"
     inkscape:pageopacity="0.0"
     inkscape:pagecheckerboard="0"
     inkscape:deskcolor="#d1d1d1"
     inkscape:zoom="1.7416039"
     inkscape:cx="138.66528"
     inkscape:cy="179.4323"
     inkscape:window-width="1920"
     inkscape:window-height="1017"
     inkscape:window-x="1432"
     inkscape:window-y="-8"
     inkscape:window-maximized="1"
     inkscape:current-layer="g1" />
  <g
     inkscape:groupmode="layer"
     inkscape:label="Image"
     id="g1">
    <g
       id="g30"
       transform="translate(4.4631993,-15.1608)">
      <path
         style="fill:#afcdde"
         d="m 107.18879,210.06365 c 7.42825,-6.76822 19.74621,-12.22428 29.5694,-13.09734 8.39558,-0.74618 18.63754,1.99019 25.41002,6.78885 3.75883,2.66333 5.20635,2.78081 8.04294,0.65275 2.75041,-2.06339 7.84218,-4.5698 12.45552,-6.13118 5.75163,-1.94664 16.73956,-1.66215 23.66667,0.61274 6.7257,2.20875 15.24565,7.01429 19.81122,11.17418 4.104,3.73935 3.3,4.30528 -1.36008,0.95735 -3.81891,-2.74362 -12.4445,-7.06492 -17.11781,-8.57579 -7.89993,-2.55404 -18.18889,-2.46595 -26.00337,0.22262 -6.22267,2.14091 -9.44759,4.32523 -10.32906,6.99612 -0.76432,2.31591 -0.80457,2.33606 -4.66757,2.33606 -3.86299,0 -3.90324,-0.0202 -4.66756,-2.33606 -1.54527,-4.68219 -12.66751,-9.06581 -22.95326,-9.04658 -9.82019,0.0184 -17.9958,2.81655 -26.90478,9.20845 -3.0889,2.21619 -5.5488,3.49638 -6.68158,3.47726 -1.71482,-0.0289 -1.63957,-0.16989 1.7293,-3.23943 z m -6.52212,-2.31184 c 0,-0.82679 0.47149,-4.93417 1.04776,-9.12752 0.66168,-4.81483 1.02065,-11.96639 0.97418,-19.40787 l -0.0736,-11.78358 1.52582,-0.21642 c 1.21436,-0.17224 1.60857,-0.76075 1.93122,-2.88308 l 0.40539,-2.66667 0.0946,2.83334 0.0946,2.83333 h 4.6513 c 4.22573,0 4.75121,-0.15249 5.74334,-1.66667 1.01161,-1.54391 1.01161,-1.78942 0,-3.33333 -1.04406,-1.59344 -1.38428,-1.66667 -7.74334,-1.66667 h -6.6513 v -3 -3 l 6.83333,10e-4 c 7.54203,0.001 10.36383,0.9109 12.69522,4.09299 1.70805,2.3313 1.82093,7.76457 0.21233,10.21961 -1.61199,2.4602 -6.00365,4.32066 -10.24088,4.33839 l -3.5,0.0146 v 6.33333 6.33334 h -1.93454 c -1.87569,0 -1.94668,0.12169 -2.33334,4 -0.21933,2.2 -0.57824,5.8 -0.79758,8 -0.21933,2.2 -0.19839,4 0.0466,4 0.24494,0 1.6994,-0.86012 3.23213,-1.91137 12.85137,-8.81437 30.23369,-12.75197 43.00342,-9.74153 4.57613,1.07882 10.99125,3.96348 12.28738,5.52523 0.47734,0.57516 -0.55484,0.29758 -2.51372,-0.67601 -5.58431,-2.77545 -9.43531,-3.52999 -17.9903,-3.52489 -6.50537,0.004 -8.92736,0.2951 -12.96371,1.55879 -7.14048,2.23552 -15.72875,6.74224 -22.31568,11.71023 -5.10494,3.85024 -5.72061,4.15281 -5.72061,2.81135 z m 126.71469,-2.49855 c -5.92544,-4.57751 -15.94831,-9.91284 -22.38135,-11.91395 -9.77549,-3.04084 -23.01295,-2.34801 -31.16401,1.63107 -4.20524,2.05287 -2.17693,0.27797 2.3179,-2.02831 13.11084,-6.7271 34.50319,-3.68768 50.29956,7.14657 1.53273,1.05125 2.98718,1.91137 3.23212,1.91137 0.24494,0 0.26589,-1.8 0.0466,-4 -0.21933,-2.2 -0.57825,-5.8 -0.79758,-8 l -0.39879,-4 h -4.26788 -4.26787 v -15.66667 -15.66667 h 7.37166 7.37167 l -0.205,2.83333 -0.205,2.83334 -4.16667,0.19848 -4.16666,0.19847 0.10013,3.46819 0.10013,3.46819 0.44108,-3 0.44109,-3 0.29212,2.66667 0.29211,2.66667 5.5,0.19362 5.5,0.19363 v 2.97304 2.97304 h -5 c -5.49333,0 -5.49889,0.006 -4.58333,4.58333 0.38065,1.90323 0.64,2.08334 3,2.08334 h 2.58333 v 3 c 0,2.99681 -0.003,3 -2.3863,3 -2.24526,0 -2.36522,0.10836 -2.02964,1.83333 0.73095,3.75721 2.51063,19.50696 2.30062,20.35994 -0.14011,0.56905 -1.98754,-0.48154 -5.16999,-2.94002 z m 0.61865,-27.53206 c 0,-1.25335 -0.1821,-2.75335 -0.40466,-3.33334 -0.80762,-2.10462 -1.59534,-0.97942 -1.59534,2.27881 0,2.51852 0.24444,3.33334 1,3.33334 0.69385,0 1,-0.69765 1,-2.27881 z m -151.050282,7.15101 c 2.229091,-6.75899 11.684512,-29.80082 12.132635,-29.56592 0.460032,0.24115 12.250977,29.63152 12.250977,30.53706 0,0.12634 -1.393136,0.13827 -3.095854,0.0265 l -3.09585,-0.2032 -2.892449,-8 c -1.590846,-4.4 -2.989213,-8.27449 -3.10748,-8.60999 -0.118268,-0.3355 -1.567931,3.2645 -3.221473,8 l -3.006441,8.60999 -3.180823,0.20554 c -2.815957,0.18195 -3.135217,0.0672 -2.783242,-1 z m 47.716942,-8.20554 v -9.33333 h 6.6513 c 6.35906,0 6.69928,-0.0732 7.74334,-1.66667 1.01161,-1.54391 1.01161,-1.78942 0,-3.33333 -0.70704,-1.07909 -1.73297,-1.6797 -2.91001,-1.70363 -0.99988,-0.0203 -3.99296,-0.0467 -6.6513,-0.0587 l -4.83333,-0.0217 v -2.94132 -2.94132 l 6.83333,10e-4 c 5.18801,7.8e-4 7.38375,0.28169 9.11928,1.16666 3.45513,1.76182 4.9774,4.25526 4.92002,8.05888 -0.0585,3.87991 -0.9768,5.78428 -3.54106,7.3437 l -1.91666,1.16559 2.93225,6.29873 c 1.61274,3.46431 2.94439,6.52374 2.95922,6.79874 0.0148,0.275 -1.34207,0.5 -3.01533,0.5 h -3.04228 l -3.00013,-6.33334 c -2.57984,-5.44608 -3.22767,-6.33333 -4.62438,-6.33333 -1.60725,0 -1.62426,0.0663 -1.62426,6.33333 v 6.33334 h -3 -3 z m 22.66667,-6.33333 V 154.66667 H 154.66667 162 v 3 3 h -4.33333 -4.33333 v 3.33334 3.33333 h 5 5 l -0.0534,-2.5 c -0.0294,-1.375 -0.5544,-8.63837 -1.16667,-16.14082 L 161,135.05169 l -2.22851,-1.50108 c -3.29656,-2.2205 -8.91297,-4.14726 -14.51993,-4.98119 -8.0258,-1.19369 -19.4989,0.79373 -27.86726,4.82729 -3.83574,1.84882 -3.54313,1.1833 0.57782,-1.31426 13.47123,-8.16442 32.70643,-8.71221 44.03788,-1.25414 l 3.33334,2.19391 -0.25381,17.15556 c -0.22962,15.5199 -0.15017,17.15556 0.83333,17.15556 0.84402,0 1.08715,0.6709 1.08715,3 v 3 h -6.33334 -6.33333 v 3.33333 3.33334 H 157.66667 162 v 3 3 h -7.33333 -7.33333 z m 32.66667,5.55969 -7,-10.10867 -0.19081,6.44116 -0.19081,6.44115 h -2.97586 -2.97586 v -12 c 0,-11.76442 0.0276,-12 1.40679,-12 1.38333,0 1.40279,-0.18037 1.16667,-10.81351 l -0.24012,-10.81351 3.33333,-2.20263 c 11.50247,-7.6007 31.13396,-6.94911 44.35291,1.47212 4.32206,2.7534 4.15981,2.96691 -0.5339,0.70259 -4.3157,-2.08196 -12.41541,-4.13295 -18.48568,-4.68091 -7.74732,-0.69933 -17.62731,1.53217 -23.10481,5.21847 -2.15497,1.45026 -2.24318,1.68597 -2.67279,7.1419 -0.24435,3.10318 -0.60806,7.51715 -0.80825,9.80881 -0.28978,3.31731 -0.17192,4.16667 0.5782,4.16667 0.51819,0 3.96112,4.3349 7.65095,9.63312 3.68983,5.29821 7.00457,9.81592 7.36608,10.03934 0.42087,0.26012 0.65729,-3.21858 0.65729,-9.67145 v -10.07767 l 2.83333,0.205 2.83334,0.20499 v 15.33334 15.33333 l -3,0.16752 -3,0.16751 z m 14.66666,3.86448 v -6.42417 h 3 3 v 3.33333 3.33334 h 2.39925 c 3.25491,0 6.79084,-1.78921 7.94438,-4.01992 3.85067,-7.44637 -0.23064,-15.31342 -7.94438,-15.31342 h -2.39925 v 3.33334 3.33333 h -3 -3 v -6.42247 -6.42246 l 6.5,0.347 c 7.23644,0.38631 10.32501,1.4255 13.41221,4.5127 2.15039,2.15039 4.08779,7.35682 4.08779,10.98523 0,3.73827 -1.86873,8.61135 -4.1484,10.81773 -3.22736,3.12362 -6.7154,4.32091 -13.68493,4.69745 l -6.16667,0.33316 z m 45.71076,4.40916 c 0.65858,-1.00833 3.11467,-4.48574 5.45796,-7.72756 2.34329,-3.24183 4.1011,-6.24183 3.90625,-6.66667 -0.19486,-0.42484 -1.73407,-2.64743 -3.42048,-4.9391 l -3.06619,-4.16667 h 3.66046 c 3.30625,0 3.79826,0.19353 5.08458,2 0.78327,1.1 1.6287,1.99282 1.87873,1.98405 0.25003,-0.009 2.0457,-2.25878 3.99037,-5 l 3.53578,-4.98405 h 3.29756 c 1.81366,0 3.29756,0.23998 3.29756,0.53328 0,0.48143 -1.31518,2.38902 -8.36862,12.13817 l -2.17393,3.00478 3.27127,4.47883 c 1.7992,2.46336 3.27128,4.63621 3.27128,4.82856 0,0.19234 -1.575,0.34885 -3.5,0.3478 -3.1451,-0.002 -3.6352,-0.20433 -4.83334,-1.99808 -0.73333,-1.0979 -1.54245,-1.99703 -1.79804,-1.99809 -0.25559,-0.001 -2.03566,2.24809 -3.95571,4.99809 l -3.491,5 h -3.62096 -3.62097 z"
         id="path36" />
      <path
         style="fill:#e38d3e"
         d="m 105.70861,211.28614 c 2.60108,-2.7195 10.25204,-7.71971 15.25932,-9.97258 6.99134,-3.14554 11.52201,-4.15858 18.70043,-4.18132 9.00636,-0.0285 16.70188,2.41375 23.79425,7.55144 2.83221,2.05164 3.66321,2.00879 6.87073,-0.35434 6.50848,-4.79511 14.30255,-7.20151 23.33333,-7.20412 9.81553,-0.003 17.9601,2.75127 27.73624,9.37906 4.96928,3.36895 8.75325,6.82906 7.46825,6.82906 -0.38203,0 -2.75932,-1.39366 -5.28287,-3.09702 -15.85351,-10.70088 -32.08474,-12.76664 -46.1038,-5.86767 -3.91003,1.92419 -5.07274,2.86169 -6.00524,4.84211 -1.12584,2.39099 -1.25305,2.45591 -4.81258,2.45591 -3.55953,0 -3.68674,-0.0649 -4.81257,-2.45591 -0.93192,-1.97916 -2.1013,-2.92291 -6.0238,-4.86152 -9.96019,-4.92259 -21.65345,-5.26252 -32.44765,-0.94326 -4.83644,1.93528 -13.04351,6.91216 -14.7103,8.92051 -0.45958,0.55377 -1.755,1.00685 -2.8787,1.00685 h -2.0431 z m -4.82132,-4.68976 c 1.40413,-7.84281 1.95298,-15.75926 1.83238,-26.42971 l -0.13751,-12.16666 1.54226,-0.0525 c 0.84824,-0.0289 3.36214,-0.0102 5.58645,0.0415 6.15022,0.14299 9.08217,-1.77343 7.98791,-5.22115 C 117.07416,160.79985 114.34706,160 108.26172,160 h -5.67554 l 0.20691,-2.5 L 103,155 l 7,0.0273 c 5.57411,0.0217 7.42295,0.27776 9.07631,1.25703 2.77115,1.64132 4.25703,4.3237 4.25703,7.68502 0,5.79333 -3.54188,8.72352 -11.16667,9.23814 L 108,173.48867 v 6.25567 c 0,6.18793 -0.0176,6.25567 -1.62732,6.25567 -0.89503,0 -1.75942,0.225 -1.92088,0.5 -0.16146,0.275 -0.51103,4.06133 -0.77682,8.41408 l -0.48327,7.91408 3.02125,-2.07867 c 7.74662,-5.32982 18.00101,-9.33234 27.72171,-10.82041 7.82252,-1.19749 20.57571,0.70079 23.72566,3.5315 0.36318,0.32637 -0.68682,0.069 -2.33333,-0.57189 -2.35977,-0.91855 -5.11111,-1.1713 -12.99366,-1.19366 -8.81756,-0.025 -10.55181,0.15885 -14.66667,1.55493 -6.51121,2.20911 -14.38966,6.38461 -20.30901,10.76357 -7.22069,5.34166 -6.94457,5.23144 -6.47037,2.58284 z m 126.15911,-1.85291 c -6.06353,-4.57665 -14.78728,-9.2684 -21.37973,-11.4983 -4.10913,-1.38991 -5.86138,-1.57511 -14.66666,-1.55013 -7.88255,0.0224 -10.6339,0.27511 -12.99367,1.19366 -1.64651,0.64091 -2.69651,0.89826 -2.33333,0.57189 2.61061,-2.34603 14.73124,-4.54317 21.332,-3.8669 9.37869,0.96087 22.12981,5.66159 29.94714,11.04006 l 3.04786,2.09698 -0.0828,-3.53203 c -0.0455,-1.94262 -0.27054,-5.63203 -0.5,-8.19869 l -0.41719,-4.66667 -4.33334,-0.33333 -4.33333,-0.33334 V 170.33334 155 l 7.16667,-0.18922 7.16666,-0.18922 V 157.31078 160 h -4.33333 -4.33333 v 3.66667 c 0,4.10127 -0.59241,3.76768 6.66666,3.75406 5.38111,-0.0101 6,0.29497 6,2.95753 v 2.28841 l -5.16666,0.10563 c -2.84167,0.0581 -5.69167,0.0616 -6.33334,0.008 -0.99355,-0.0833 -1.16666,0.50186 -1.16666,3.94325 0,3.47166 0.16247,4.00974 1.15312,3.81896 0.90661,-0.1746 1.13307,-0.86202 1.05933,-3.21555 -0.0516,-1.64642 0.0385,-2.24348 0.20018,-1.32681 0.82875,4.69858 0.80413,4.66666 3.60007,4.66666 2.65185,0 2.65396,0.002 2.65396,2.66667 0,2.60317 -0.0556,2.66667 -2.33333,2.66667 -1.42262,0 -2.33304,0.32525 -2.33258,0.83333 4.1e-4,0.45833 0.59696,5.46179 1.32565,11.11879 0.7287,5.657 1.23049,10.37987 1.11509,10.49528 -0.11541,0.1154 -2.5432,-1.55137 -5.3951,-3.70394 z M 77.333336,185.22932 c 0,-0.99234 10.680768,-28.71458 11.348724,-29.45593 0.450279,-0.49976 10.679321,24.45002 11.71351,28.57057 0.39062,1.55636 0.25553,1.65605 -2.244328,1.65605 H 95.49127 l -2.997708,-8.5 c -1.64874,-4.675 -3.220842,-8.5 -3.493559,-8.5 -0.272718,0 -1.844819,3.825 -3.493559,8.5 l -2.997709,8.5 h -2.5877 c -1.513527,0 -2.587699,-0.31992 -2.587699,-0.77069 z m 47.809504,0.35797 c -0.26189,-0.2619 -0.47617,-4.29806 -0.47617,-8.96926 v -8.49308 l 6.72133,-0.22914 c 5.79592,-0.19759 6.85537,-0.41263 7.69492,-1.56187 1.39648,-1.9116 0.88785,-4.4833 -1.08292,-5.47533 -0.95695,-0.4817 -4.1678,-0.84313 -7.54024,-0.84878 L 124.58618,160 124.79309,157.5 125,155 l 7,0.0206 c 10.01677,0.0295 13.33334,2.24703 13.33334,8.9149 0,3.46253 -0.95344,5.46594 -3.37264,7.08675 -1.07627,0.72108 -1.95772,1.51374 -1.95878,1.76147 -0.001,0.24772 1.19808,2.93185 2.66475,5.96473 3.39689,7.02434 3.39224,7.38209 -0.0927,7.12319 l -2.75931,-0.205 -2.73234,-6.16666 c -2.48155,-5.60065 -2.89908,-6.16667 -4.549,-6.16667 h -1.81666 l -0.19169,6.16667 -0.19168,6.16666 -2.35716,0.1984 c -1.29644,0.10911 -2.57144,-0.0159 -2.83334,-0.27778 z m 22.48949,-0.43639 c -0.17921,-0.46701 -0.2448,-7.44201 -0.14575,-15.5 L 147.66667,155 154.83334,154.81078 162,154.62156 V 157.31078 160 h -4.33333 -4.33333 v 3.62582 3.62582 l 2.83333,0.36515 c 1.55833,0.20083 4.33333,0.29422 6.16667,0.20752 l 3.33333,-0.15764 0.20691,2.5 0.20691,2.5 h -6.37357 -6.37358 v 4 4 H 157.66667 162 v 2.66667 2.66667 h -7.02092 c -5.07129,0 -7.1114,-0.23579 -7.34675,-0.84911 z m 32.5729,-9.47305 -7.20522,-10.32216 -0.19081,6.32216 -0.19081,6.32216 h -2.97586 -2.97586 v -11.66667 c 0,-11.22222 0.0508,-11.66667 1.33334,-11.66667 1.27885,0 1.33333,-0.44444 1.33333,-10.87741 v -10.87741 l 4.0514,-2.39671 c 6.10387,-3.6109 11.79335,-4.77078 21.18409,-4.3187 8.34768,0.40188 13.43781,1.66412 19.09784,4.73587 1.83334,0.99496 2.73334,1.5985 2,1.34119 -10.87631,-3.8162 -21.33337,-5.11631 -29.20512,-3.63102 -2.42395,0.45737 -6.59442,1.92491 -9.2677,3.26122 l -4.86051,2.42964 -0.42938,3.51802 c -0.23616,1.93491 -0.64352,6.50991 -0.90524,10.16666 -0.38542,5.38493 -0.30381,6.65294 0.42937,6.67122 0.49789,0.0124 4.20525,4.73741 8.23858,10.5 l 7.33334,10.47743 0.18359,-10.5 0.1836,-10.5 h 2.64973 2.64974 v 15.66667 15.66667 h -2.62811 -2.62811 z m 14.96144,9.9535 c -0.275,-0.28613 -0.5,-3.17023 -0.5,-6.40912 v -5.88889 h 3 3 v 3.75187 3.75187 l 2.73665,-0.4376 c 6.03508,-0.96505 9.25721,-4.35177 9.25983,-9.73281 0.002,-4.33528 -1.75911,-7.37888 -5.3044,-9.16667 -1.63603,-0.825 -3.81103,-1.5 -4.83334,-1.5 -1.80857,0 -1.85874,0.099 -1.85874,3.66667 v 3.66667 h -3 -3 v -6.43202 -6.43201 l 5.83334,0.40776 c 7.22854,0.50529 10.19306,1.33693 12.90749,3.62097 3.13694,2.63956 4.56066,6.33957 4.57787,11.89711 0.0234,7.56537 -3.33468,12.40519 -9.90694,14.27825 -3.27381,0.93302 -12.29261,1.60214 -12.91176,0.95795 z m 44.83334,-0.107 c 0,-0.3018 2.25,-3.68775 5,-7.52434 2.75,-3.8366 5,-7.29609 5,-7.68776 0,-0.39168 -1.35,-2.56743 -3,-4.83502 -1.65,-2.26758 -3,-4.2776 -3,-4.46672 0,-0.18911 1.47553,-0.34384 3.27896,-0.34384 3.02936,0 3.38892,0.17793 4.7236,2.33749 0.79456,1.28562 1.71284,2.17174 2.04062,1.96916 0.32779,-0.20259 2.15723,-2.60446 4.06544,-5.33749 l 3.46947,-4.96916 h 3.21095 c 1.76603,0 3.21096,0.13951 3.21096,0.31003 0,0.17051 -2.43417,3.65975 -5.40927,7.75385 l -5.40927,7.44382 3.41541,4.91282 3.41541,4.91282 -3.17281,2e-5 c -2.81809,3e-5 -3.3964,-0.26552 -5.17281,-2.37526 l -2,-2.3753 -3.68884,5.2086 c -3.63393,5.13106 -3.73565,5.21163 -6.83333,5.4118 -1.72947,0.11175 -3.14449,-0.0437 -3.14449,-0.34552 z M 163.32438,162.5 c -0.005,-1.19166 -0.45297,-7.56666 -0.99565,-14.16666 -0.54268,-6.6 -0.98865,-12.36236 -0.99104,-12.80523 -0.006,-1.05507 -4.76612,-3.81641 -9.72429,-5.64071 -5.77442,-2.12462 -19.10093,-2.13344 -26.50884,-0.0175 -2.87583,0.82141 -6.10083,1.94443 -7.16667,2.4956 -1.06584,0.55116 -1.93789,0.84873 -1.93789,0.66126 0,-0.84559 8.40184,-4.45505 13.3645,-5.74144 4.52557,-1.17308 6.8287,-1.37046 13.22439,-1.13336 8.47889,0.31434 12.16118,1.28268 17.91111,4.71016 l 3.50001,2.08631 v 15.85914 c 0,8.72253 -0.15,15.85914 -0.33334,15.85914 -0.18333,0 -0.33736,-0.975 -0.34229,-2.16667 z"
         id="path35" />
      <path
         style="fill:#5096c3"
         d="m 105.69678,212.7154 c -0.33016,-0.53422 4.42526,-4.51082 8.6495,-7.23292 2.744,-1.76823 11.11243,-5.4823 14.80953,-6.57275 4.75285,-1.40183 15.99326,-1.58501 20.20167,-0.3292 4.53453,1.35311 9.27952,3.5325 12.62361,5.79807 4.50484,3.05195 4.95031,3.10098 8.01341,0.88209 9.16931,-6.64222 20.51222,-9.16119 31.35736,-6.96368 5.30516,1.07496 15.98148,5.33812 15.98148,6.38156 0,0.27115 0.9,0.8658 2,1.32144 1.1,0.45563 2,1.03519 2,1.28791 0,0.25271 -1.98882,-0.50631 -4.4196,-1.68672 -15.46617,-7.51052 -28.15001,-7.7966 -41.24707,-0.93034 -2.3185,1.2155 -3.70995,2.50557 -4.57038,4.2374 -1.21362,2.44272 -1.30189,2.48611 -4.66042,2.29081 -2.81354,-0.1636 -3.46644,-0.43658 -3.66511,-1.5324 -0.35779,-1.97345 -1.8563,-3.39731 -5.6802,-5.39724 -6.96925,-3.64497 -14.50466,-5.06764 -22.25789,-4.20224 -5.36335,0.59865 -15.31064,3.70949 -17.43776,5.45336 -0.58387,0.47866 -1.8387,1.25743 -2.78852,1.73059 -0.94983,0.47317 -2.74983,1.75137 -4,2.84045 -3.03867,2.64711 -4.43425,3.39295 -4.90961,2.62381 z m -4.80949,-6.11902 c 1.40413,-7.84281 1.95298,-15.75926 1.83238,-26.42971 l -0.13751,-12.16666 1.54226,-0.0525 c 0.84824,-0.0289 3.36214,-0.0102 5.58645,0.0415 6.15022,0.14299 9.08217,-1.77343 7.98791,-5.22115 C 117.07416,160.79985 114.34706,160 108.26172,160 h -5.67554 l 0.20691,-2.5 L 103,155 l 7,0.0273 c 5.57411,0.0217 7.42295,0.27776 9.07631,1.25703 2.77115,1.64132 4.25703,4.3237 4.25703,7.68502 0,5.79333 -3.54188,8.72352 -11.16667,9.23814 L 108,173.48867 v 6.25567 c 0,6.18793 -0.0176,6.25567 -1.62732,6.25567 -0.89503,0 -1.75942,0.225 -1.92088,0.5 -0.16146,0.275 -0.51103,4.06133 -0.77682,8.41408 l -0.48327,7.91408 3.02125,-2.07867 c 7.74662,-5.32982 18.00101,-9.33234 27.72171,-10.82041 7.82252,-1.19749 20.57571,0.70079 23.72566,3.5315 0.36318,0.32637 -0.68682,0.069 -2.33333,-0.57189 -2.35977,-0.91855 -5.11111,-1.1713 -12.99366,-1.19366 -8.81756,-0.025 -10.55181,0.15885 -14.66667,1.55493 -6.51121,2.20911 -14.38966,6.38461 -20.30901,10.76357 -7.22069,5.34166 -6.94457,5.23144 -6.47037,2.58284 z m 126.15911,-1.85291 c -6.06353,-4.57665 -14.78728,-9.2684 -21.37973,-11.4983 -4.10913,-1.38991 -5.86138,-1.57511 -14.66666,-1.55013 -7.88255,0.0224 -10.6339,0.27511 -12.99367,1.19366 -1.64651,0.64091 -2.69651,0.89826 -2.33333,0.57189 2.61061,-2.34603 14.73124,-4.54317 21.332,-3.8669 9.37869,0.96087 22.12981,5.66159 29.94714,11.04006 l 3.04786,2.09698 -0.0828,-3.53203 c -0.0455,-1.94262 -0.27054,-5.63203 -0.5,-8.19869 l -0.41719,-4.66667 -4.33334,-0.33333 -4.33333,-0.33334 V 170.33334 155 l 7.16667,-0.18922 7.16666,-0.18922 V 157.31078 160 h -4.33333 -4.33333 v 3.66667 c 0,4.10127 -0.59241,3.76768 6.66666,3.75406 5.38111,-0.0101 6,0.29497 6,2.95753 v 2.28841 l -5.16666,0.10563 c -2.84167,0.0581 -5.69167,0.0616 -6.33334,0.008 -0.99355,-0.0833 -1.16666,0.50186 -1.16666,3.94325 0,3.47166 0.16247,4.00974 1.15312,3.81896 0.90661,-0.1746 1.13307,-0.86202 1.05933,-3.21555 -0.0516,-1.64642 0.0385,-2.24348 0.20018,-1.32681 0.82875,4.69858 0.80413,4.66666 3.60007,4.66666 2.65185,0 2.65396,0.002 2.65396,2.66667 0,2.60317 -0.0556,2.66667 -2.33333,2.66667 -1.42262,0 -2.33304,0.32525 -2.33258,0.83333 4.1e-4,0.45833 0.59696,5.46179 1.32565,11.11879 0.7287,5.657 1.23049,10.37987 1.11509,10.49528 -0.11541,0.1154 -2.5432,-1.55137 -5.3951,-3.70394 z M 77.333336,185.22932 c 0,-0.99234 10.680768,-28.71458 11.348724,-29.45593 0.450279,-0.49976 10.679321,24.45002 11.71351,28.57057 0.39062,1.55636 0.25553,1.65605 -2.244328,1.65605 H 95.49127 l -2.997708,-8.5 c -1.64874,-4.675 -3.220842,-8.5 -3.493559,-8.5 -0.272718,0 -1.844819,3.825 -3.493559,8.5 l -2.997709,8.5 h -2.5877 c -1.513527,0 -2.587699,-0.31992 -2.587699,-0.77069 z m 47.809504,0.35797 c -0.26189,-0.2619 -0.47617,-4.29806 -0.47617,-8.96926 v -8.49308 l 6.72133,-0.22914 c 5.79592,-0.19759 6.85537,-0.41263 7.69492,-1.56187 1.39648,-1.9116 0.88785,-4.4833 -1.08292,-5.47533 -0.95695,-0.4817 -4.1678,-0.84313 -7.54024,-0.84878 L 124.58618,160 124.79309,157.5 125,155 l 7,0.0206 c 10.01677,0.0295 13.33334,2.24703 13.33334,8.9149 0,3.46253 -0.95344,5.46594 -3.37264,7.08675 -1.07627,0.72108 -1.95772,1.51374 -1.95878,1.76147 -0.001,0.24772 1.19808,2.93185 2.66475,5.96473 3.39689,7.02434 3.39224,7.38209 -0.0927,7.12319 l -2.75931,-0.205 -2.73234,-6.16666 c -2.48155,-5.60065 -2.89908,-6.16667 -4.549,-6.16667 h -1.81666 l -0.19169,6.16667 -0.19168,6.16666 -2.35716,0.1984 c -1.29644,0.10911 -2.57144,-0.0159 -2.83334,-0.27778 z m 22.48949,-0.43639 c -0.17921,-0.46701 -0.2448,-7.44201 -0.14575,-15.5 L 147.66667,155 154.83334,154.81078 162,154.62156 V 157.31078 160 h -4.33333 -4.33333 v 3.62582 3.62582 l 2.83333,0.36515 c 1.55833,0.20083 4.33333,0.29422 6.16667,0.20752 l 3.33333,-0.15764 0.20691,2.5 0.20691,2.5 h -6.37357 -6.37358 v 4 4 H 157.66667 162 v 2.66667 2.66667 h -7.02092 c -5.07129,0 -7.1114,-0.23579 -7.34675,-0.84911 z m 32.5729,-9.47305 -7.20522,-10.32216 -0.19081,6.32216 -0.19081,6.32216 h -2.97586 -2.97586 v -11.66667 c 0,-11.22222 0.0508,-11.66667 1.33334,-11.66667 1.27885,0 1.33333,-0.44444 1.33333,-10.87741 v -10.87741 l 4.0514,-2.39671 c 6.10387,-3.6109 11.79335,-4.77078 21.18409,-4.3187 8.34768,0.40188 13.43781,1.66412 19.09784,4.73587 1.83334,0.99496 2.73334,1.5985 2,1.34119 -10.87631,-3.8162 -21.33337,-5.11631 -29.20512,-3.63102 -2.42395,0.45737 -6.59442,1.92491 -9.2677,3.26122 l -4.86051,2.42964 -0.42938,3.51802 c -0.23616,1.93491 -0.64352,6.50991 -0.90524,10.16666 -0.38542,5.38493 -0.30381,6.65294 0.42937,6.67122 0.49789,0.0124 4.20525,4.73741 8.23858,10.5 l 7.33334,10.47743 0.18359,-10.5 0.1836,-10.5 h 2.64973 2.64974 v 15.66667 15.66667 h -2.62811 -2.62811 z m 14.96144,9.9535 c -0.275,-0.28613 -0.5,-3.17023 -0.5,-6.40912 v -5.88889 h 3 3 v 3.75187 3.75187 l 2.73665,-0.4376 c 6.03508,-0.96505 9.25721,-4.35177 9.25983,-9.73281 0.002,-4.33528 -1.75911,-7.37888 -5.3044,-9.16667 -1.63603,-0.825 -3.81103,-1.5 -4.83334,-1.5 -1.80857,0 -1.85874,0.099 -1.85874,3.66667 v 3.66667 h -3 -3 v -6.43202 -6.43201 l 5.83334,0.40776 c 7.22854,0.50529 10.19306,1.33693 12.90749,3.62097 3.13694,2.63956 4.56066,6.33957 4.57787,11.89711 0.0234,7.56537 -3.33468,12.40519 -9.90694,14.27825 -3.27381,0.93302 -12.29261,1.60214 -12.91176,0.95795 z m 44.83334,-0.107 c 0,-0.3018 2.25,-3.68775 5,-7.52434 2.75,-3.8366 5,-7.29609 5,-7.68776 0,-0.39168 -1.35,-2.56743 -3,-4.83502 -1.65,-2.26758 -3,-4.2776 -3,-4.46672 0,-0.18911 1.47553,-0.34384 3.27896,-0.34384 3.02936,0 3.38892,0.17793 4.7236,2.33749 0.79456,1.28562 1.71284,2.17174 2.04062,1.96916 0.32779,-0.20259 2.15723,-2.60446 4.06544,-5.33749 l 3.46947,-4.96916 h 3.21095 c 1.76603,0 3.21096,0.13951 3.21096,0.31003 0,0.17051 -2.43417,3.65975 -5.40927,7.75385 l -5.40927,7.44382 3.41541,4.91282 3.41541,4.91282 -3.17281,2e-5 c -2.81809,3e-5 -3.3964,-0.26552 -5.17281,-2.37526 l -2,-2.3753 -3.68884,5.2086 c -3.63393,5.13106 -3.73565,5.21163 -6.83333,5.4118 -1.72947,0.11175 -3.14449,-0.0437 -3.14449,-0.34552 z M 163.32438,162.5 c -0.005,-1.19166 -0.45297,-7.56666 -0.99565,-14.16666 -0.54268,-6.6 -0.98865,-12.36236 -0.99104,-12.80523 -0.006,-1.05507 -4.76612,-3.81641 -9.72429,-5.64071 -5.77442,-2.12462 -19.10093,-2.13344 -26.50884,-0.0175 -2.87583,0.82141 -6.10083,1.94443 -7.16667,2.4956 -1.06584,0.55116 -1.93789,0.84873 -1.93789,0.66126 0,-0.84559 8.40184,-4.45505 13.3645,-5.74144 4.52557,-1.17308 6.8287,-1.37046 13.22439,-1.13336 8.47889,0.31434 12.16118,1.28268 17.91111,4.71016 l 3.50001,2.08631 v 15.85914 c 0,8.72253 -0.15,15.85914 -0.33334,15.85914 -0.18333,0 -0.33736,-0.975 -0.34229,-2.16667 z"
         id="path34" />
      <path
         style="fill:#5491b5"
         d="m 105.69678,212.7154 c -0.33016,-0.53422 4.42526,-4.51082 8.6495,-7.23292 2.744,-1.76823 11.11243,-5.4823 14.80953,-6.57275 4.75285,-1.40183 15.99326,-1.58501 20.20167,-0.3292 4.53453,1.35311 9.27952,3.5325 12.62361,5.79807 4.50484,3.05195 4.95031,3.10098 8.01341,0.88209 9.16931,-6.64222 20.51222,-9.16119 31.35736,-6.96368 5.30516,1.07496 15.98148,5.33812 15.98148,6.38156 0,0.27115 0.9,0.8658 2,1.32144 1.1,0.45563 2,1.03519 2,1.28791 0,0.25271 -1.98882,-0.50631 -4.4196,-1.68672 -15.46617,-7.51052 -28.15001,-7.7966 -41.24707,-0.93034 -2.3185,1.2155 -3.70995,2.50557 -4.57038,4.2374 -1.21362,2.44272 -1.30189,2.48611 -4.66042,2.29081 -2.81354,-0.1636 -3.46644,-0.43658 -3.66511,-1.5324 -0.35779,-1.97345 -1.8563,-3.39731 -5.6802,-5.39724 -6.96925,-3.64497 -14.50466,-5.06764 -22.25789,-4.20224 -5.36335,0.59865 -15.31064,3.70949 -17.43776,5.45336 -0.58387,0.47866 -1.8387,1.25743 -2.78852,1.73059 -0.94983,0.47317 -2.74983,1.75137 -4,2.84045 -3.03867,2.64711 -4.43425,3.39295 -4.90961,2.62381 z m -5.03011,-4.97004 c 0,-0.55 0.2869,-1.17731 0.63755,-1.39403 0.35065,-0.21671 0.48097,-0.80206 0.2896,-1.30077 -0.19137,-0.49871 0.079,-4.3141 0.60078,-8.47865 0.62801,-5.01226 0.84076,-11.12137 0.62934,-18.0719 l -0.31939,-10.5 5.91439,-0.01 c 7.12599,-0.0118 9.16429,-0.8314 9.45384,-3.8012 0.29238,-2.99885 -2.09158,-4.07837 -9.47587,-4.29091 l -5.79471,-0.16679 0.1989,-2.36564 L 103,155 l 5.33334,-0.18213 c 5.59261,-0.19099 11.45472,1.05956 11.17466,2.38385 -0.0873,0.41267 0.21955,0.60517 0.68181,0.42778 1.29014,-0.49508 3.14353,3.24912 3.14353,6.35053 0,3.1722 -1.05314,5.60517 -2.13646,4.93564 -0.40981,-0.25327 -0.54973,-0.15327 -0.3156,0.22556 1.11167,1.79874 -5.5268,4.46961 -10.11936,4.07136 l -2.42858,-0.2106 -0.19081,6.49901 c -0.18889,6.4335 -0.20758,6.49901 -1.85426,6.49901 -0.91489,0 -1.77526,0.375 -1.91191,0.83333 -0.34671,1.16281 -1.4245,15.83499 -1.16314,15.83408 0.11727,-4.1e-4 1.5638,-0.92998 3.21452,-2.0657 7.91748,-5.44737 20.42571,-10.01385 30.0185,-10.9591 6.58896,-0.64926 18.8553,1.5381 21.21409,3.78295 0.36318,0.34563 -0.68682,0.14935 -2.33333,-0.43619 -6.79394,-2.41609 -19.7736,-2.28058 -27.48914,0.28699 -2.35136,0.78248 -4.97975,1.55838 -5.84086,1.72422 -0.86112,0.16583 -1.73772,0.5504 -1.948,0.8546 -0.21028,0.30419 -2.41174,1.65797 -4.89213,3.00839 -2.48039,1.35042 -6.38039,3.9003 -8.66667,5.66641 -5.46397,4.22082 -5.82353,4.41934 -5.82353,3.21537 z m 11.77778,-8.71603 c 0,-0.53387 -0.2549,-0.81314 -0.56643,-0.6206 -0.31154,0.19254 -0.39383,0.62934 -0.18288,0.97067 0.53908,0.87226 0.74931,0.77404 0.74931,-0.35007 z m 118.05212,8.19955 c -1.01022,-0.7398 -1.63887,-1.66529 -1.39699,-2.05665 0.24949,-0.40368 0.127,-0.51827 -0.28308,-0.26482 -0.39756,0.24571 -2.63635,-0.8909 -4.97508,-2.52579 -4.39729,-3.07392 -14.74814,-8.38161 -16.34549,-8.38161 -0.51654,0 -0.70288,-0.3318 -0.43226,-0.76968 0.29164,-0.47188 0.1832,-0.5889 -0.28028,-0.30246 -0.64711,0.39993 -3.83222,-0.20481 -7.45005,-1.41451 -0.55,-0.1839 -4.05493,-0.30541 -7.78874,-0.27001 -6.64434,0.063 -10.76941,0.65962 -14.62364,2.11512 -1.05653,0.39898 -1.62095,0.45166 -1.25429,0.11706 1.49048,-1.3601 6.73091,-2.86211 12.52569,-3.59011 5.197,-0.65289 7.1511,-0.60018 12.71223,0.34291 3.61418,0.61291 6.91418,1.3286 7.33333,1.59041 0.41915,0.26181 1.33106,0.56453 2.02647,0.67271 2.66108,0.41395 14.36026,6.37145 13.94439,7.10082 -0.2324,0.40759 -0.18235,0.52397 0.11122,0.25864 0.58638,-0.52999 4.34667,1.45353 4.34667,2.29283 0,0.28762 0.375,0.52299 0.83334,0.52306 0.65759,9e-5 0.69274,-1.72212 0.16666,-8.16667 l -0.66666,-8.16679 -4.33334,-0.33333 -4.33333,-0.33334 V 170.33334 155 l 7.16667,-0.18922 7.16666,-0.18922 v 2.78182 2.78181 l -3.96355,-0.3594 c -2.92816,-0.26552 -4.27785,-0.10264 -5.16667,0.62351 -0.66171,0.5406 -0.82811,0.79296 -0.36978,0.5608 0.61787,-0.31298 0.83334,0.54627 0.83334,3.32324 0,2.32714 0.25244,3.58934 0.66666,3.33333 0.36667,-0.22661 0.67126,-0.0193 0.67688,0.46066 0.007,0.56928 0.18049,0.62698 0.5,0.16598 0.51287,-0.74 7.81716,-0.85482 8.53776,-0.13422 0.22865,0.22864 0.83639,0.25429 1.35054,0.057 0.69756,-0.26768 0.93482,0.26357 0.93482,2.09309 v 2.45182 l -3.83333,-0.10176 c -2.10833,-0.056 -4.95833,-0.0772 -6.33333,-0.0472 l -2.5,0.0546 v 4.04771 c 0,3.78918 0.0958,4.03995 1.5,3.92621 0.825,-0.0668 2.775,-0.0883 4.33333,-0.0477 l 2.83333,0.0738 v 2.66667 c 0,2.5662 -0.0816,2.66628 -2.16666,2.65646 -1.72494,-0.008 -1.9628,-0.15687 -1.16667,-0.72956 0.83168,-0.59826 0.79444,-0.65265 -0.22119,-0.32312 -0.67166,0.21792 -1.28362,0.39622 -1.35991,0.39622 -0.0763,0 0.54107,5.025 1.37192,11.16667 0.83086,6.14166 1.44282,11.3708 1.35991,11.62031 -0.0829,0.24951 -0.97727,-0.15164 -1.9875,-0.89144 z M 77.333336,185.00001 c 0,-0.55 0.317705,-1 0.706011,-1 0.388306,0 0.549104,-0.25389 0.357328,-0.56419 -0.304305,-0.49237 4.105315,-12.7914 6.609866,-18.43581 0.488095,-1.1 1.097025,-2.72387 1.353179,-3.6086 0.256154,-0.88473 0.909275,-2.67014 1.45138,-3.96758 0.84452,-2.02122 1.07766,-2.19456 1.628295,-1.21063 0.950282,1.69806 11.227275,28.36211 11.227275,29.12959 0,0.36147 -1.170653,0.65722 -2.60145,0.65722 -2.312441,0 -2.681872,-0.2307 -3.32535,-2.07658 -0.398144,-1.14212 -0.559787,-2.34212 -0.359205,-2.66667 0.200582,-0.32455 0.117405,-0.59009 -0.184838,-0.59009 -0.826485,0 -2.996725,-6.57679 -2.457921,-7.44859 0.274655,-0.44441 0.172448,-0.57469 -0.247316,-0.31526 -0.64998,0.40171 -1.943595,-3.11931 -1.617586,-4.40281 0.225593,-0.88817 -0.560309,-0.53414 -2.067544,0.93137 -0.809668,0.78726 -1.097124,1.21956 -0.638791,0.96066 0.458334,-0.2589 0.833334,-0.32018 0.833334,-0.13619 0,0.91653 -3.65114,10.10583 -4.08737,10.28723 -0.277417,0.11535 -0.339151,0.64035 -0.137187,1.16666 0.201965,0.52631 0.02196,0.95693 -0.400009,0.95693 -0.421969,0 -0.718521,0.375 -0.659004,0.83334 0.274395,2.11307 -0.146025,2.5 -2.716431,2.5 -1.925926,0 -2.666666,-0.27778 -2.666666,-1 z m 47.809504,0.58728 c -0.26189,-0.2619 -0.47617,-4.32617 -0.47617,-9.03173 v -8.55555 h 6.185 c 7.20875,0 8.85772,-0.76018 9.26775,-4.27244 0.14777,-1.26576 0.10636,-2.27382 -0.092,-2.24015 -0.19839,0.0337 -1.19569,-0.28359 -2.21623,-0.70503 -1.02054,-0.42144 -4.41172,-0.80219 -7.53596,-0.84612 l -5.68045,-0.0799 0.20263,-2.4282 L 125,155 l 7,0.0418 c 7.9102,0.0473 10.62502,0.98798 12.32205,4.26968 1.62819,3.14856 1.31183,7.56234 -0.71464,9.97067 -0.94926,1.12813 -2.14926,2.05115 -2.66667,2.05115 -1.22791,0 -1.19427,1.57592 0.0865,4.05268 0.56498,1.09256 0.81863,2.32402 0.56366,2.73657 -0.26419,0.42746 -0.16618,0.56629 0.22786,0.32275 0.64849,-0.40078 3.51457,5.21242 3.51457,6.88325 0,0.46376 -1.02806,0.67017 -2.70498,0.54308 l -2.70497,-0.205 -2.64633,-5.86791 c -1.45549,-3.22735 -2.51689,-6.07735 -2.35869,-6.33333 0.15821,-0.25599 -0.80871,-0.46542 -2.14869,-0.46542 h -2.43634 v 6.33333 6.33333 l -2.35716,0.1984 c -1.29644,0.10911 -2.57144,-0.0159 -2.83334,-0.27778 z m 22.48949,-0.43639 c -0.17921,-0.46701 -0.2448,-7.44201 -0.14575,-15.5 L 147.66667,155 l 7.08778,-0.18842 7.08778,-0.18842 0.0377,2.73288 0.0377,2.73287 -4.36045,-0.15808 -4.36045,-0.15808 -0.0984,4.37697 c -0.083,3.6913 0.0693,4.34461 0.97195,4.17045 1.34893,-0.26025 7.67004,-0.51254 10.09634,-0.40296 1.63502,0.0738 1.83334,0.33519 1.83334,2.41613 v 2.33333 h -6.36515 -6.36515 l 0.19848,4.12527 0.19848,4.12527 4.16667,-0.17242 L 162,180.57236 v 2.71382 2.71383 h -7.02092 c -5.07129,0 -7.1114,-0.23579 -7.34675,-0.84911 z m 38.41307,-1.08714 c -0.7583,-1.06494 -1.37873,-2.26494 -1.37873,-2.66667 0,-0.40173 -0.23634,-0.73042 -0.52521,-0.73042 -0.69327,0 -5.69309,-7.43628 -5.69529,-8.47067 -9.5e-4,-0.44221 -0.17843,-0.6948 -0.39441,-0.56131 -0.21598,0.13348 -1.27389,-0.98321 -2.35091,-2.48154 -1.07702,-1.49833 -1.52531,-2.46315 -0.9962,-2.14405 0.82384,0.49685 0.8306,0.41817 0.0471,-0.54779 -1.7028,-2.09922 -2.08504,-1.14494 -2.08504,5.20536 v 6.33334 h -2.94585 -2.94586 l -0.0426,-11.66667 c -0.0425,-11.64049 -0.0393,-11.66667 1.44586,-11.66575 1.48682,9.3e-4 1.48823,-0.0108 1.2893,-10.73608 -0.17979,-9.69314 -0.0826,-10.82566 1,-11.64882 0.65953,-0.5015 1.58973,-0.77369 2.06711,-0.60488 0.47738,0.16881 0.69257,0.0231 0.4782,-0.32372 -0.21436,-0.34685 0.55308,-1.11819 1.70542,-1.71409 1.29359,-0.66895 1.90317,-0.77278 1.5933,-0.27141 -0.27603,0.44662 0.38855,0.15373 1.47684,-0.65088 1.0883,-0.80461 3.07977,-1.52025 4.42551,-1.59032 1.34574,-0.0701 2.44814,-0.35239 2.44978,-0.62739 0.002,-0.275 3.09588,-0.5 6.87607,-0.5 8.05692,0 16.14757,1.77642 21.79359,4.78508 2.01667,1.07465 3.06667,1.74391 2.33333,1.48725 -9.50241,-3.32579 -12.11312,-3.806 -21,-3.86271 -7.89669,-0.0504 -9.49036,0.1318 -13,1.4861 -2.2,0.84893 -4.50297,1.58398 -5.11772,1.63342 -0.61475,0.0494 -1.00606,0.27058 -0.86959,0.4914 0.13648,0.22082 -0.59608,0.90018 -1.6279,1.50969 -2.04839,1.21001 -2.16171,1.75498 -3.1129,14.96977 -0.36041,5.00719 -0.27101,6.16985 0.47546,6.1836 0.9682,0.0178 8.91321,11.08483 8.92782,12.43602 0.005,0.43245 0.27778,1.03245 0.60689,1.33333 0.34192,0.3126 0.39284,0.1899 0.11881,-0.28628 -0.26375,-0.45833 -0.34871,-0.83333 -0.18879,-0.83333 0.15992,0 1.45263,1.787 2.87268,3.97112 1.42005,2.18411 2.80691,3.98411 3.08191,4 0.275,0.0159 0.5,-4.62112 0.5,-10.30445 v -10.33334 h 2.67274 2.67275 l -0.038,15.66667 -0.038,15.66667 h -2.58931 c -2.09714,0 -2.85136,-0.36804 -3.96803,-1.93625 z m 9.06572,1.4918 c -0.24445,-0.24444 -0.44445,-3.06944 -0.44445,-6.27778 v -5.83333 h 3 3 v 3.56223 c 0,4.15856 0.76208,4.626 5,3.06695 5.24952,-1.9312 7.17549,-4.88509 6.93022,-10.62902 -0.14253,-3.3381 -0.43892,-4.0574 -2.54577,-6.17835 -1.52307,-1.53327 -3.34777,-2.59548 -5.05111,-2.94039 -1.46667,-0.29699 -3.04167,-0.61526 -3.5,-0.70727 -0.59156,-0.11875 -0.83334,0.97614 -0.83334,3.77373 v 3.94101 h -3 -3 V 161 154.66667 h 3.62732 c 1.99503,0 3.81576,0.30489 4.04607,0.67754 0.23031,0.37265 0.71931,0.49178 1.08668,0.26474 0.99732,-0.61638 6.65955,0.37877 6.21821,1.09287 -0.20947,0.33893 0.0631,0.44587 0.60581,0.23763 1.0927,-0.41931 5.58482,3.43842 5.89275,5.06055 0.10441,0.55 0.4743,1.20447 0.822,1.45437 0.81354,0.58472 1.32177,8.47198 0.74426,11.55035 -0.27798,1.4818 -0.71878,2.19572 -1.17979,1.91081 -0.44552,-0.27535 -0.54714,-0.14931 -0.25749,0.31935 0.72584,1.17444 -2.06748,4.63344 -4.91478,6.08603 -3.81645,1.947 -14.99647,3.48477 -16.24659,2.23465 z m 44.88889,0.0968 c 0,-0.83863 3.54289,-5.60155 3.97024,-5.33743 0.26081,0.16119 0.4742,-0.0949 0.4742,-0.5691 0,-0.47419 1.40951,-2.83742 3.13224,-5.25161 2.00271,-2.80654 2.86782,-4.55285 2.39899,-4.8426 -0.40328,-0.24924 -0.57358,-0.86923 -0.37845,-1.37774 0.19514,-0.50851 0.0968,-0.85317 -0.21843,-0.7659 -0.54065,0.14965 -5.37879,-5.66822 -5.37879,-6.468 0,-0.20533 1.43297,-0.37333 3.18437,-0.37333 2.98323,0 3.29375,0.16869 4.91592,2.67044 l 1.73154,2.67043 3.85158,-5.67043 3.85157,-5.67044 h 3.28806 c 2.34897,0 3.2008,0.23801 2.98251,0.83333 -0.16805,0.45834 -0.58332,0.77825 -0.92282,0.71092 -0.3395,-0.0673 -0.99914,0.48906 -1.46588,1.23642 -0.54053,0.86553 -0.57467,1.18954 -0.094,0.89249 0.41503,-0.2565 -0.0878,0.7282 -1.11745,2.18822 -1.02962,1.46001 -2.14339,2.49213 -2.47504,2.29359 -0.33166,-0.19854 -0.42392,-0.0712 -0.20503,0.28296 0.21888,0.35417 -0.82641,2.26164 -2.32289,4.23882 -1.5225,2.01157 -2.39377,3.70391 -1.97821,3.84243 0.40847,0.13616 2.09007,2.17504 3.7369,4.53085 l 2.99424,4.28331 h -3.30154 c -3.10775,0 -3.40412,-0.15499 -5.04881,-2.64029 l -1.74726,-2.64029 -3.02439,4.47362 c -4.501,6.6578 -4.67491,6.80696 -7.93667,6.80696 -1.59317,0 -2.89667,-0.15644 -2.89667,-0.34763 z m -11.83188,-8.65237 c 0.007,-1.46667 0.14392,-1.98817 0.30338,-1.1589 0.15947,0.82928 0.15341,2.02928 -0.0135,2.66667 -0.16686,0.63739 -0.29733,-0.0411 -0.28993,-1.50777 z m -65.69356,-27.16667 c -0.9593,-12.45596 -1.32928,-14.97946 -2.30848,-15.74503 -2.48354,-1.94175 -9.51789,-4.71916 -13.87301,-5.47757 -8.06416,-1.40432 -21.93834,0.43643 -28.37415,3.76452 -1.05541,0.54578 -1.91893,0.83893 -1.91893,0.65146 0,-0.84501 8.31614,-4.41238 13.18238,-5.65484 8.22629,-2.10036 21.15997,-1.67835 25.81762,0.84239 0.73334,0.39689 1.7104,0.7848 2.17125,0.86202 0.46086,0.0772 2.16942,0.98278 3.79681,2.01234 l 2.95888,1.87194 0.0487,15.85305 c 0.0268,8.71918 -0.043,15.85305 -0.15499,15.85305 -0.11203,0 -0.71777,-6.675 -1.34608,-14.83333 z"
         id="path33" />
      <path
         style="fill:#388fc3"
         d="m 105.69678,212.7154 c -0.33016,-0.53422 4.42526,-4.51082 8.6495,-7.23292 2.744,-1.76823 11.11243,-5.4823 14.80953,-6.57275 4.75285,-1.40183 15.99326,-1.58501 20.20167,-0.3292 4.53453,1.35311 9.27952,3.5325 12.62361,5.79807 4.50484,3.05195 4.95031,3.10098 8.01341,0.88209 9.16931,-6.64222 20.51222,-9.16119 31.35736,-6.96368 5.30516,1.07496 15.98148,5.33812 15.98148,6.38156 0,0.27115 0.9,0.8658 2,1.32144 1.1,0.45563 2,1.03519 2,1.28791 0,0.25271 -1.98882,-0.50631 -4.4196,-1.68672 -15.46617,-7.51052 -28.15001,-7.7966 -41.24707,-0.93034 -2.3185,1.2155 -3.70995,2.50557 -4.57038,4.2374 -1.21362,2.44272 -1.30189,2.48611 -4.66042,2.29081 -2.81354,-0.1636 -3.46644,-0.43658 -3.66511,-1.5324 -0.35779,-1.97345 -1.8563,-3.39731 -5.6802,-5.39724 -6.96925,-3.64497 -14.50466,-5.06764 -22.25789,-4.20224 -5.36335,0.59865 -15.31064,3.70949 -17.43776,5.45336 -0.58387,0.47866 -1.8387,1.25743 -2.78852,1.73059 -0.94983,0.47317 -2.74983,1.75137 -4,2.84045 -3.03867,2.64711 -4.43425,3.39295 -4.90961,2.62381 z m -4.1312,-6.35903 c 0.23893,-0.62264 0.43442,-1.8681 0.43442,-2.76768 0,-1.43303 0.16636,-1.54656 1.34323,-0.91672 1.05697,0.56567 1.42735,0.49964 1.73799,-0.30988 0.21712,-0.56581 0.92594,-1.02875 1.57515,-1.02875 0.6492,0 1.56743,-0.46638 2.04051,-1.0364 1.51902,-1.83031 3.01671,-2.33246 3.11377,-1.044 0.0534,0.70885 -1.11175,1.876 -3.0286,3.03382 -1.71346,1.03497 -3.21148,1.76885 -3.32894,1.63084 -0.11746,-0.13801 -0.50531,0.27039 -0.86189,0.90756 -0.35657,0.63717 -1.28096,1.49707 -2.05419,1.91089 -1.20696,0.64595 -1.3444,0.59223 -0.97145,-0.37968 z m 128.46626,-0.98925 c -0.5325,-0.33686 -1.2075,-0.46456 -1.5,-0.28378 -0.29251,0.18078 -0.53183,0.0746 -0.53183,-0.23593 0,-0.97582 -8.43329,-6.16 -15.52419,-9.54315 -3.74503,-1.7868 -6.2773,-3.26122 -5.62727,-3.27649 1.74727,-0.0411 11.15038,3.98905 13.65146,5.85091 1.19166,0.8871 2.16666,1.43391 2.16666,1.21513 0,-0.21877 1.40874,0.49562 3.13052,1.58755 1.72179,1.09192 3.67179,1.98531 4.33334,1.98531 0.83855,0 1.20281,0.50473 1.20281,1.66667 0,1.88142 0.017,1.86789 -1.3015,1.03378 z m -117.5732,-5.79737 c -1.2068,-1.20679 2.52103,-3.61711 9.54136,-6.16922 3.90625,-1.42004 4.66707,-1.57987 4.65689,-0.97828 -0.01,0.58561 -7.17406,3.57776 -8.56627,3.57776 -0.4165,0 -0.75728,0.27978 -0.75728,0.62174 0,0.34196 -0.59823,0.81161 -1.32939,1.04367 -0.73116,0.23206 -1.74545,0.83799 -2.25397,1.34651 -0.50852,0.50852 -1.08962,0.75954 -1.29134,0.55782 z M 128,191.93759 c 0,-0.33234 0.6,-0.60425 1.33334,-0.60425 0.73333,0 1.33333,0.11501 1.33333,0.25558 0,0.14057 -0.6,0.41248 -1.33333,0.60425 C 128.6,192.38494 128,192.26993 128,191.93759 Z m 72.66667,-0.60425 c -2.2612,-0.47596 -2.2715,-0.4918 -0.33333,-0.51245 1.1,-0.0117 2.75,0.21888 3.66667,0.51245 2.18594,0.70006 -0.007,0.70006 -3.33334,0 z m -68.48731,-0.46199 c 0.64864,-0.16903 1.54864,-0.15792 2,0.0247 0.45135,0.18261 -0.0794,0.32091 -1.17936,0.30732 -1.1,-0.0136 -1.46929,-0.163 -0.82064,-0.33202 z m -53.626925,-5.87447 c -0.521346,-0.52134 0.12492,-3.06886 0.690027,-2.72002 0.233314,0.14403 0.463135,-0.38969 0.510713,-1.18604 0.163388,-2.73475 8.328419,-23.16675 9.259545,-23.17089 0.284874,-0.001 1.391788,2.19123 2.45981,4.87222 1.068021,2.68099 2.329794,5.77452 2.803939,6.87452 1.880519,4.36274 4.979903,12.74077 5.179189,14 0.31831,2.01133 -2.436348,2.16604 -3.694788,0.20752 -0.544535,-0.84747 -2.052732,-4.65509 -3.351548,-8.46138 -1.298817,-3.80629 -2.520409,-7.07945 -2.714648,-7.27369 -0.19424,-0.19424 -0.956842,0.19316 -1.694671,0.86089 -0.73783,0.66772 -1.207283,1.34827 -1.043231,1.51232 0.217626,0.21763 -3.999943,13.13682 -4.548694,13.93349 -0.287497,0.41738 -3.526405,0.8803 -3.855643,0.55106 z m 24.780905,-7.98591 c 0,-5.98809 0.22724,-8.31193 0.83333,-8.52197 0.45833,-0.15882 2.69887,-0.14351 4.97898,0.034 2.49204,0.19404 4.92898,-0.002 6.10948,-0.49064 2.45583,-1.01724 3.84023,-3.98569 2.78146,-5.96404 -0.90541,-1.69176 -2.57142,-2.14445 -8.85172,-2.40518 -2.66834,-0.11077 -5.09646,-0.23031 -5.39582,-0.26562 -0.29935,-0.0353 -0.44935,-0.88922 -0.33333,-1.89756 0.20678,-1.79707 0.30982,-1.83737 5.21095,-2.03766 6.80898,-0.27825 9.00417,0.24155 11.57866,2.74172 1.87462,1.82051 2.21619,2.64121 2.32,5.57423 0.0804,2.2719 -0.2104,3.77155 -0.85671,4.41787 -0.53815,0.53814 -0.79807,1.15883 -0.57761,1.3793 0.84729,0.84729 -5.57868,3.06241 -8.925,3.07657 -1.90336,0.008 -3.66584,0.34664 -3.91663,0.75243 -0.25078,0.40578 -0.43516,2.73078 -0.40972,5.16666 0.0617,5.91119 -0.18497,6.54904 -2.55916,6.61654 l -1.98716,0.0565 z m 22.37702,7.71175 c -0.12739,-0.21416 -0.2653,-3.87855 -0.30648,-8.1431 l -0.0749,-7.75372 6.42243,-0.28089 c 5.77412,-0.25255 6.55155,-0.44036 7.70156,-1.86057 1.55505,-1.9204 1.35552,-4.66545 -0.43564,-5.99349 -0.84837,-0.62901 -3.46481,-1.0697 -7.36328,-1.2402 -6.03363,-0.26389 -6.04723,-0.26847 -6.01736,-2.02429 0.0298,-1.75222 0.0553,-1.76062 5.93049,-1.95339 4.94511,-0.16225 6.3832,0.04 8.88127,1.24934 3.25065,1.57361 4.19839,3.19857 4.14207,7.10183 -0.0512,3.55009 -1.08361,5.88265 -2.98765,6.75018 -0.90217,0.41106 -1.80091,1.16588 -1.99719,1.67738 -0.19628,0.5115 0.86214,3.50799 2.35204,6.65885 1.48991,3.15087 2.70892,5.88497 2.70892,6.07577 0,0.19081 -0.83297,0.34692 -1.85104,0.34692 -1.44162,0 -2.25262,-0.61934 -3.66667,-2.80011 -0.99859,-1.54007 -1.81562,-3.32236 -1.81562,-3.96066 0,-0.6383 -0.27692,-1.33169 -0.61538,-1.54086 -0.33845,-0.20918 -0.79955,-1.21889 -1.02466,-2.2438 -0.35591,-1.62043 -0.75387,-1.8838 -3.05129,-2.01936 L 130,172.61266 l -0.0102,5.52701 c -0.006,3.03985 -0.23062,5.827 -0.5,6.19367 -0.53259,0.72491 -3.40391,1.02074 -3.77944,0.38938 z m 24.95631,0.1327 c -0.91667,-0.17774 -1.833,-0.59071 -2.0363,-0.9177 -0.2033,-0.32699 -0.3533,-6.82175 -0.33333,-14.43279 l 0.0363,-13.83826 6.5,-0.19081 6.5,-0.1908 v 1.99233 c 0,1.97807 -0.0298,1.99374 -4.16254,2.1908 -4.03887,0.19258 -4.17266,0.25737 -4.50343,2.18052 -0.1875,1.09012 -0.23736,3.06779 -0.11081,4.39482 l 0.2301,2.41278 5.878,-0.18726 c 5.81362,-0.18521 5.88268,-0.1686 6.30578,1.51718 0.23528,0.93744 0.33755,1.79468 0.22725,1.90498 -0.1103,0.11029 -2.8999,0.2999 -6.19911,0.42133 L 153,172.33334 v 4.33333 4.33334 l 4.10322,-0.0282 4.10321,-0.0281 -0.10321,2.02815 -0.10322,2.02816 -4.33333,0.0893 c -2.38333,0.0491 -5.08333,-0.0561 -6,-0.23388 z m 34.61682,-3.13058 c -1.25592,-1.82753 -2.20848,-3.56325 -2.11682,-3.85715 0.0917,-0.29389 -0.15053,-0.45935 -0.53821,-0.36768 -0.38769,0.0917 -1.47291,-1.18334 -2.41159,-2.83334 -0.93869,-1.65 -1.92665,-3.15 -2.19546,-3.33333 -0.26881,-0.18333 -1.28736,-1.60833 -2.26344,-3.16667 -1.82001,-2.90569 -3.72798,-3.74331 -3.79641,-1.66666 -0.0211,0.64166 -0.0697,3.19525 -0.10797,5.67464 -0.0745,4.8295 -0.73448,5.99318 -3.05494,5.38637 -1.29648,-0.33904 -1.47441,-0.85431 -1.54426,-4.4721 -0.0434,-2.2489 -0.0132,-4.38891 0.0671,-4.75558 0.0803,-0.36667 0.10441,-3.40369 0.0536,-6.74894 -0.0881,-5.79573 -0.0213,-6.10089 1.41799,-6.47727 1.65324,-0.43233 4.81771,1.23805 4.20957,2.22205 -0.20529,0.33216 0.21483,0.91866 0.9336,1.30334 0.71877,0.38467 1.51887,1.37472 1.778,2.20011 0.25912,0.82539 1.10444,2.15889 1.87848,2.96334 3.16961,3.29413 4.03988,4.39059 3.07401,3.87301 -0.55,-0.29473 -0.025,0.49846 1.16667,1.76265 1.19167,1.26418 2.16667,2.61274 2.16667,2.99679 0,1.04325 2.5988,3.19471 3.17075,2.62496 0.27275,-0.2717 0.59334,-4.83762 0.71241,-10.14649 l 0.2165,-9.6525 1.7835,0.20614 1.7835,0.20614 v 14.66667 14.66667 l -2.04985,0.0238 c -1.72035,0.02 -2.41691,-0.51031 -4.33333,-3.29898 z m 10.4831,3.0377 c -0.12352,-0.23606 -0.19654,-2.6792 -0.16225,-5.4292 l 0.0623,-5 h 2 c 1.93316,0 1.99413,0.0937 1.82442,2.8051 -0.13758,2.19782 0.10193,2.95363 1.10629,3.49115 1.78776,0.95678 6.84315,-0.0927 9.13663,-1.89678 5.34956,-4.20796 4.37293,-15.07756 -1.58071,-17.59296 -3.20852,-1.35559 -7.27988,-2.01371 -7.75016,-1.25278 -0.20213,0.32705 -0.50819,1.72892 -0.68014,3.11528 -0.36547,2.94652 -1.10662,3.88044 -2.81885,3.55196 -1.08243,-0.20765 -1.23748,-0.90459 -1.23748,-5.56252 v -5.32512 l 5.87375,0.17045 c 3.63165,0.10538 6.6191,0.55588 7.82635,1.18017 1.07393,0.55535 2.07425,0.92865 2.22293,0.82956 0.57635,-0.38415 3.09027,2.43695 4.38484,4.92063 1.88455,3.61559 1.87593,10.81358 -0.0178,14.84227 -1.73572,3.69259 -2.83253,4.65266 -6.85702,6.00221 -3.2868,1.10218 -12.92333,1.93376 -13.33315,1.15058 z m 25.22914,-0.26253 c -0.16266,-0.45834 -0.22825,-7.13334 -0.14574,-14.83334 l 0.15002,-14 6.5,-0.20978 6.5,-0.20979 v 2.04312 c 0,2.01083 -0.0534,2.04312 -3.37716,2.04312 -4.94952,0 -5.84552,0.68568 -5.66761,4.33726 0.22142,4.5447 0.58086,4.74249 8.92447,4.91099 3.96727,0.0801 4.2006,0.17258 4,1.58508 -0.17726,1.24808 -0.7369,1.56025 -3.33223,1.85871 -1.71555,0.19729 -3.66555,0.16063 -4.33333,-0.0815 -0.66778,-0.24211 -2.00111,-0.0405 -2.96295,0.44803 -0.96185,0.48852 -1.88655,0.75049 -2.05488,0.58215 -0.33637,-0.33637 0.0709,6.23231 0.46209,7.45285 0.16056,0.50093 1.62479,0.66522 4.29263,0.48163 l 4.04897,-0.27863 -3.3e-4,2.18503 -3.3e-4,2.18504 -4.49967,0.0962 c -2.47482,0.0529 -4.84796,-0.18665 -5.27365,-0.53237 -0.49163,-0.39926 -0.9316,-0.37356 -1.20602,0.0705 -0.58845,0.95213 -1.66401,0.88078 -2.02428,-0.13429 z m 20.62622,0.0943 c -0.21552,-0.34871 0.50491,-1.65537 1.60094,-2.90369 1.09604,-1.24831 2.18948,-2.88938 2.42988,-3.6468 0.2404,-0.75743 0.88458,-1.37714 1.43151,-1.37714 0.54693,0 0.82471,-0.2746 0.61728,-0.61022 -0.20742,-0.33562 0.37487,-1.50392 1.29399,-2.59623 1.98984,-2.3648 2.12743,-4.30645 0.42051,-5.93424 -0.68784,-0.65596 -1.45944,-1.872 -1.71466,-2.70232 -0.25523,-0.83033 -0.70835,-1.3587 -1.00693,-1.17417 -0.29858,0.18454 -0.68308,-0.20064 -0.85445,-0.85594 -0.24259,-0.92765 0.13059,-1.22516 1.68539,-1.34363 2.04896,-0.15613 4.4746,1.4243 4.4746,2.91542 0,1.36369 1.7897,1.61849 2.9586,0.42122 0.60134,-0.61594 2.39642,-2.90013 3.98906,-5.07598 2.35414,-3.2162 3.28441,-3.98575 4.97402,-4.11468 1.14308,-0.0872 2.07832,0.13705 2.07832,0.4984 0,0.36134 -2.14042,3.65494 -4.75648,7.3191 -5.16217,7.23035 -4.98358,6.28002 -2.15406,11.46268 0.56335,1.03185 1.44868,2.03894 1.9674,2.238 1.87159,0.71819 0.97858,2.08593 -1.36192,2.08593 -1.8327,0 -2.65523,-0.45911 -4.0139,-2.24041 -1.86328,-2.4429 -3.09712,-2.43812 -4.21543,0.0163 -0.39324,0.86307 -1.81221,3.00666 -3.15326,4.76353 -1.81206,2.37393 -2.93397,3.23213 -4.36841,3.34159 -1.06159,0.081 -2.10649,-0.13803 -2.322,-0.48674 z m -71.4792,-44.2216 c 0.16948,-6.43002 0.33823,-7.31239 1.52392,-7.96837 0.73334,-0.40571 1.48334,-0.88766 1.66667,-1.07099 0.46968,-0.46968 4.61946,-2.38845 7,-3.23664 3.19263,-1.13754 10.97504,-1.93404 15.51065,-1.58745 6.64558,0.50783 5.35754,1.18729 -2.39645,1.26418 -5.37948,0.0533 -8.21038,0.42843 -11.60968,1.53824 -2.47252,0.80724 -4.66825,1.74724 -4.8794,2.08889 -0.21116,0.34166 -0.59316,0.49187 -0.8489,0.33382 -0.25574,-0.15806 -1.43678,0.51205 -2.62452,1.48912 -2.06996,1.70281 -2.176,2.02541 -2.55634,7.7765 -0.21824,3.3 -0.52725,6.13577 -0.68667,6.30171 -0.15943,0.16593 -0.20411,-2.95212 -0.0993,-6.92901 z m -7.63541,1.96064 c -0.27096,-1.46667 -0.49596,-3.58554 -0.5,-4.70861 -0.0209,-5.80999 -13.44144,-10.95308 -26.1625,-10.02612 -3.62591,0.26422 -4.53463,0.17372 -3.61188,-0.35968 2.04648,-1.18296 14.88353,-0.89086 19.43371,0.44221 4.73334,1.38674 8.33333,3.01782 8.33333,3.77567 0,0.29876 0.43945,0.54319 0.97655,0.54319 1.70366,0 2.41846,2.52714 2.21802,7.84163 -0.16959,4.49625 -0.2578,4.81608 -0.68723,2.49171 z"
         id="path32" />
      <path
         style="fill:#3a8cbb"
         d="m 105.69678,212.7154 c -0.33016,-0.53422 4.42526,-4.51082 8.6495,-7.23292 2.744,-1.76823 11.11243,-5.4823 14.80953,-6.57275 4.75285,-1.40183 15.99326,-1.58501 20.20167,-0.3292 4.53453,1.35311 9.27952,3.5325 12.62361,5.79807 4.50484,3.05195 4.95031,3.10098 8.01341,0.88209 9.16931,-6.64222 20.51222,-9.16119 31.35736,-6.96368 5.30516,1.07496 15.98148,5.33812 15.98148,6.38156 0,0.27115 0.9,0.8658 2,1.32144 1.1,0.45563 2,1.03519 2,1.28791 0,0.25271 -1.98882,-0.50631 -4.4196,-1.68672 -15.46617,-7.51052 -28.15001,-7.7966 -41.24707,-0.93034 -2.3185,1.2155 -3.70995,2.50557 -4.57038,4.2374 -1.21362,2.44272 -1.30189,2.48611 -4.66042,2.29081 -2.81354,-0.1636 -3.46644,-0.43658 -3.66511,-1.5324 -0.35779,-1.97345 -1.8563,-3.39731 -5.6802,-5.39724 -6.96925,-3.64497 -14.50466,-5.06764 -22.25789,-4.20224 -5.36335,0.59865 -15.31064,3.70949 -17.43776,5.45336 -0.58387,0.47866 -1.8387,1.25743 -2.78852,1.73059 -0.94983,0.47317 -2.74983,1.75137 -4,2.84045 -3.03867,2.64711 -4.43425,3.39295 -4.90961,2.62381 z m -4.36344,-5.94752 c 0,-0.3368 0.6,-0.76927 1.33333,-0.96104 C 103.4,205.61507 104,204.94798 104,204.32443 c 0,-0.73388 -0.35269,-0.9984 -1,-0.75001 -0.61568,0.23626 -1,-0.002 -1,-0.61879 0,-0.74089 0.30448,-0.8446 1.16667,-0.39737 0.64167,0.33285 1.88194,0.48914 2.75616,0.34732 1.34951,-0.21893 1.46392,-0.10656 0.7578,0.74428 -0.45744,0.55117 -1.06628,0.85716 -1.35297,0.67997 -0.2867,-0.17719 -0.68577,0.10649 -0.88681,0.6304 -0.43516,1.134 -3.10751,2.68853 -3.10751,1.80765 z m 128.5,-1.48794 c -0.64167,-0.37374 -1.16667,-0.51461 -1.16667,-0.31306 0,0.20155 -0.61094,-0.24448 -1.35765,-0.99119 -1.64796,-1.64796 -1.14282,-2.95711 0.75012,-1.94404 0.72135,0.38606 1.13544,0.98687 0.92019,1.33514 -0.35319,0.57147 0.54936,0.91816 1.85401,0.71216 0.275,-0.0434 0.5,0.37106 0.5,0.92106 0,1.16639 0.0166,1.16329 -1.5,0.27993 z M 108.22223,201.6415 c 0,-1.12182 1.65924,-2.77055 3.1087,-3.08899 0.54867,-0.12054 1.29867,-0.57342 1.66666,-1.0064 0.368,-0.43298 1.26908,-0.88298 2.00241,-1 0.73334,-0.11702 1.91491,-0.73777 2.62571,-1.37944 0.71081,-0.64166 1.91081,-1.17126 2.66667,-1.17687 0.75586,-0.006 1.80997,-0.28582 2.34246,-0.62268 0.53249,-0.33686 1.23599,-0.44695 1.56333,-0.24464 0.65384,0.4041 -4.44996,2.87753 -5.93764,2.87753 -0.50995,0 -0.92719,0.2636 -0.92719,0.58578 0,0.32218 -0.9,0.95858 -2,1.41422 -1.1,0.45563 -2,1.12876 -2,1.49584 0,0.36876 -0.45432,0.29037 -1.01526,-0.17518 -0.83236,-0.69079 -0.95009,-0.67275 -0.65349,0.10018 0.21874,0.57002 -0.39027,1.38702 -1.54029,2.06635 -1.5932,0.94113 -1.90207,0.96618 -1.90207,0.1543 z m 2.44444,-1.30816 c 0.46296,-0.55783 0.53514,-1 0.16326,-1 -0.36667,0 -1.04013,0.45 -1.49659,1 -0.46296,0.55783 -0.53515,1 -0.16326,1 0.36666,0 1.04013,-0.45 1.49659,-1 z m 113.91667,2 c -0.0458,-0.18333 -0.12083,-0.60833 -0.16667,-0.94444 -0.12984,-0.95218 -1.08333,-1.70332 -1.08333,-0.85343 0,0.41673 -1.01979,0.0656 -2.26621,-0.78021 -1.24642,-0.84584 -3.19642,-1.92319 -4.33333,-2.39412 -1.13692,-0.47092 -2.06713,-1.13754 -2.06713,-1.48136 0,-0.34382 -0.3,-0.43972 -0.66666,-0.21311 -0.36667,0.22662 -0.66667,0.0943 -0.66667,-0.29399 0,-0.3883 -0.225,-0.6568 -0.5,-0.59665 -1.21969,0.26677 -4.21631,-0.99305 -3.6675,-1.54186 0.76951,-0.76951 7.75492,2.27152 7.03326,3.06186 -0.29776,0.32608 0.003,0.39047 0.68208,0.14609 0.78007,-0.28067 1.99346,0.15714 3.39208,1.22393 1.19766,0.9135 2.30562,1.53286 2.46212,1.37636 0.1565,-0.1565 1.03007,0.28826 1.94125,0.98837 0.91119,0.7001 1.26401,1.27958 0.78403,1.28774 -0.47997,0.008 -0.68727,0.31482 -0.46065,0.68149 0.22661,0.36666 0.24431,0.66666 0.0393,0.66666 -0.20497,0 -0.41018,-0.15 -0.45601,-0.33333 z M 125,192.66667 c -0.22661,-0.36666 0.0557,-0.66666 0.62733,-0.66666 0.57164,0 1.03934,0.3 1.03934,0.66666 0,0.36667 -0.28229,0.66667 -0.62732,0.66667 -0.34503,0 -0.81273,-0.3 -1.03935,-0.66667 z m 81.66667,0 c -0.80451,-0.51991 -0.69908,-0.64824 0.53935,-0.65646 0.85838,-0.006 1.35707,0.28471 1.12732,0.65646 -0.49546,0.80167 -0.42618,0.80167 -1.66667,0 z M 128,191.93759 c 0,-0.33234 0.6,-0.60425 1.33334,-0.60425 0.73333,0 1.33333,0.11501 1.33333,0.25558 0,0.14057 -0.6,0.41248 -1.33333,0.60425 C 128.6,192.38494 128,192.26993 128,191.93759 Z m 72.66667,-0.60425 c -2.2612,-0.47596 -2.2715,-0.4918 -0.33333,-0.51245 1.1,-0.0117 2.75,0.21888 3.66667,0.51245 2.18594,0.70006 -0.007,0.70006 -3.33334,0 z m -68.48731,-0.46199 c 0.64864,-0.16903 1.54864,-0.15792 2,0.0247 0.45135,0.18261 -0.0794,0.32091 -1.17936,0.30732 -1.1,-0.0136 -1.46929,-0.163 -0.82064,-0.33202 z m -53.722822,-6.03801 c -0.158851,-0.275 0.433488,-2.3 1.316309,-4.5 0.882821,-2.2 1.485318,-3.16784 1.338882,-2.15076 -0.146436,1.01709 -0.01958,2.0017 0.281897,2.18802 0.895933,0.55372 -0.152643,2.40328 -1.146318,2.02198 -0.581014,-0.22296 -0.913972,0.12137 -0.913972,0.94518 0,1.10684 0.243166,1.20346 1.666666,0.66225 0.916667,-0.34852 1.666667,-0.37608 1.666667,-0.0613 0,0.31483 -0.675,0.75331 -1.5,0.9744 -1.973689,0.52893 -2.365158,0.5174 -2.710131,-0.0798 z m 17.142167,-1.17683 c -1.083187,-1.65315 -1.277266,-3.37604 -0.67474,-5.98984 0.169046,-0.73333 0.338426,-2.08333 0.3764,-3 0.04953,-1.19561 0.626165,-0.36037 2.04023,2.95522 1.084152,2.54204 1.826035,4.76704 1.64863,4.94445 -0.177406,0.1774 -0.322555,-0.0274 -0.322555,-0.45522 0,-1.47433 -1.178565,-0.77429 -1.496501,0.88889 -0.213644,1.1176 -0.01962,1.66666 0.588949,1.66666 0.499153,0 0.907552,-0.3177 0.907552,-0.70601 0,-0.38831 0.304893,-0.51758 0.677541,-0.28727 0.986019,0.6094 0.120119,1.65995 -1.368184,1.65995 -0.703241,0 -1.773036,-0.75458 -2.377322,-1.67683 z m 1.734631,-3.44415 c 0,-0.52674 -0.304893,-0.76928 -0.677541,-0.53897 -0.372648,0.23031 -0.504943,0.69802 -0.293989,1.03935 0.210954,0.34133 0.06585,0.6206 -0.322458,0.6206 -0.388307,0 -0.706012,0.33673 -0.706012,0.7483 0,0.517 0.309092,0.49177 1,-0.0816 0.55,-0.45646 1,-1.2609 1,-1.78765 z m -0.808157,-2.97016 c -0.166433,-0.4993 -0.468628,-0.1971 -0.704367,0.70437 -0.289983,1.10889 -0.203221,1.36918 0.291491,0.87447 0.387401,-0.3874 0.573196,-1.09788 0.412876,-1.57884 z m 6.885491,6.25034 c 0.0478,-1.12809 0.19385,-1.38001 0.38222,-0.6592 0.17895,0.68478 0.90425,1.14493 1.756,1.11403 0.79811,-0.0289 1.07424,-0.20457 0.61363,-0.39027 -0.46062,-0.1857 -0.65673,-0.63013 -0.43579,-0.98761 0.22093,-0.35748 0.028,-1.5521 -0.4287,-2.65471 -0.60459,-1.45962 -0.98184,-1.76592 -1.38733,-1.12643 -0.32452,0.51177 -0.56121,-1.41699 -0.56715,-4.62168 -0.007,-3.91083 0.23057,-5.52757 0.82312,-5.59542 0.45833,-0.0525 2.82388,-0.0235 5.25677,0.0644 2.43288,0.0879 5.05788,-0.17969 5.83333,-0.5947 1.96247,-1.05028 1.7596,-0.27951 -0.42343,1.6088 -1.69077,1.4625 -1.73619,1.62355 -0.58414,2.07102 0.84331,0.32755 1.44975,0.12681 1.86646,-0.6178 0.33949,-0.60665 0.92006,-1.10299 1.29015,-1.10299 0.37008,0 0.45883,0.34635 0.1972,0.76967 -0.29472,0.47686 -0.18288,0.58871 0.29399,0.29399 0.42332,-0.26163 0.76967,-0.94472 0.76967,-1.51797 0,-0.79635 0.2111,-0.86709 0.89467,-0.29978 0.49207,0.40839 1.09207,0.54512 1.33334,0.30386 0.24126,-0.24127 0.43866,-0.224 0.43866,0.0384 0,1.0784 -5.87372,3.05011 -9.12733,3.06387 -1.95259,0.008 -3.67557,0.36239 -3.95385,0.81266 -0.27126,0.4389 -0.41585,2.25532 -0.32132,4.03647 0.10299,1.9403 -0.18275,3.67599 -0.71281,4.32996 -0.63848,0.78773 -0.65277,0.95216 -0.0514,0.59085 0.49813,-0.29927 0.82923,-0.14962 0.82312,0.37202 -0.0175,1.49352 -0.91853,2.25746 -2.82312,2.39348 -1.60188,0.1144 -1.82357,-0.0996 -1.756,-1.69493 z m 3.84736,-6.10726 c -0.18971,-3.57417 0.76927,-5.38527 2.85148,-5.38527 0.70377,0 1.9236,-0.6 2.71074,-1.33334 l 1.43117,-1.33333 h -1.73682 c -0.95525,0 -1.86303,0.375 -2.01729,0.83333 -0.21612,0.64213 -0.49838,0.65363 -1.23015,0.0501 -0.52231,-0.43077 -1.8461,-0.88077 -2.94174,-1 -1.79287,-0.19511 -2.01212,-0.0116 -2.19241,1.8349 -0.18457,1.89027 2.19698,9.61498 2.96432,9.61498 0.18417,0 0.25649,-1.47662 0.1607,-3.28139 z m 18.31286,7.12642 c -0.20408,-0.33022 -0.19103,-0.78044 0.029,-1.00049 0.22005,-0.22005 0.40009,-0.0324 0.40009,0.41703 0,0.44942 0.27184,0.64912 0.60408,0.44378 0.33225,-0.20534 0.44726,-0.97304 0.25558,-1.70601 -0.19478,-0.74487 -0.0202,-1.33267 0.39592,-1.33267 0.40943,0 0.74442,0.3177 0.74442,0.70601 0,0.38831 0.27927,0.53341 0.62061,0.32246 0.87796,-0.54262 1.55809,0.79432 0.91548,1.79958 -0.62575,0.97888 -3.42393,1.22609 -3.9652,0.35031 z m 14.42281,-0.67282 c -2.0015,-3.01014 -2.06998,-3.45812 -0.21999,-1.43915 1.27849,1.39527 2.38054,1.99206 3.39321,1.83752 0.82486,-0.12588 1.49975,0.0692 1.49975,0.43361 0,1.33433 -3.66661,0.68152 -4.67297,-0.83198 z m 10.67297,1.01654 c -1.60107,-0.31045 -2.63488,-1.24563 -2.65646,-2.40303 -0.006,-0.30119 0.46928,-0.0681 1.05533,0.51791 0.76501,0.76501 1.70515,0.94554 3.33333,0.64009 1.47405,-0.27653 2.2678,-0.16613 2.2678,0.31542 0,1.26359 5.17069,0.89611 5.99143,-0.4258 0.66216,-1.06652 0.70734,-1.05221 0.52623,0.16666 -0.17309,1.16496 -0.74445,1.34461 -4.52455,1.42263 -2.37954,0.0491 -5.07644,-0.0561 -5.99311,-0.23388 z m 38.48562,0.0746 c -0.56298,-0.56298 0.0368,-1.59673 0.92641,-1.59673 0.36666,0 0.4526,0.34635 0.19098,0.76967 -0.29472,0.47687 -0.18288,0.58871 0.29399,0.29399 1.42711,-0.882 0.8357,-2.22089 -0.897,-2.03069 -0.91666,0.10062 -1.66666,-0.0906 -1.66666,-0.42501 0,-0.33438 0.73356,-0.60796 1.63013,-0.60796 1.46296,0 1.65742,-0.32477 1.89611,-3.16667 0.14628,-1.74166 0.23772,-0.91985 0.20319,1.82627 -0.0496,3.94536 -0.2794,5.03421 -1.09528,5.18971 -0.56788,0.10823 -1.23472,-0.005 -1.48187,-0.25258 z m 6.39975,-0.44887 c -0.27358,-0.44268 -0.0219,-0.54833 0.67194,-0.28208 0.61015,0.23414 1.10936,0.11491 1.10936,-0.26496 0,-0.38729 0.58568,-0.50478 1.33333,-0.26749 0.85458,0.27124 1.33334,0.1198 1.33334,-0.42174 0,-0.65716 0.17777,-0.66715 0.8,-0.0449 1.11262,1.11262 3.75763,0.99884 7.95677,-0.34228 3.87491,-1.23756 4.60078,-1.74495 5.85862,-4.09525 0.45428,-0.84883 0.9935,-1.37581 1.19825,-1.17105 0.20476,0.20476 -0.39842,1.38274 -1.3404,2.61774 -1.20643,1.58171 -2.7757,2.57981 -5.30886,3.37659 -4.2926,1.35018 -12.97818,1.92153 -13.61235,0.89544 z m 25.55908,0.40769 c -0.24445,-0.24444 -0.43532,-0.91944 -0.42417,-1.5 0.0164,-0.85163 0.16019,-0.81471 0.74455,0.1911 0.51835,0.89219 0.86512,1.01878 1.21959,0.44523 0.38442,-0.62201 1.12492,-0.61278 3.30784,0.0412 2.33914,0.70083 2.90811,0.68804 3.38029,-0.076 0.31227,-0.50526 0.31863,-1.38481 0.0142,-1.95456 -0.45496,-0.85133 -0.0606,-1.06031 2.21318,-1.17277 2.43927,-0.12064 2.58923,-0.0494 1.26679,0.60188 -1.73771,0.85579 -2.01574,2.43043 -0.40509,2.29422 0.60221,-0.0509 1.228,0.28479 1.39066,0.74604 0.22653,0.64239 -0.11783,0.68139 -1.47165,0.16666 -2.23777,-0.85079 -2.53178,-0.84321 -1.9791,0.051 0.53881,0.87181 -4.95289,0.6875 -6.14213,-0.20615 -0.45739,-0.34369 -0.95071,-0.29566 -1.20602,0.11744 -0.49401,0.79933 -1.26176,0.90173 -1.90889,0.25459 z m 20.51271,-0.29154 c -0.25018,-0.4048 0.37329,-1.5298 1.38548,-2.5 1.44887,-1.38877 1.74656,-1.49533 1.39945,-0.50093 -0.26185,0.75014 -0.0272,1.72027 0.57794,2.38889 0.87453,0.96634 0.88096,1.12581 0.0454,1.12581 -0.53539,0 -0.83994,-0.21601 -0.67677,-0.48002 0.40371,-0.65322 -1.3682,-2.06266 -1.91088,-1.51998 -0.23808,0.23808 -0.0987,0.83548 0.30964,1.32755 0.50707,0.61098 0.51771,0.89467 0.0336,0.89467 -0.38992,0 -0.91364,-0.3312 -1.16382,-0.73599 z m -55.28577,-1.25637 c -0.23356,-0.37791 0.034,-0.48968 0.62732,-0.26201 1.15495,0.44319 1.36626,0.92104 0.4073,0.92104 -0.34502,0 -0.8106,-0.29657 -1.03462,-0.65903 z m -44.26214,-2.68177 c -1.46439,-2.60553 -2.59003,-3.62722 -1.83848,-1.66871 0.27975,0.72901 -0.0534,0.95462 -1.262,0.8546 -1.05703,-0.0875 -1.6421,-0.54514 -1.6421,-1.28449 0,-0.63172 -0.27692,-1.31973 -0.61538,-1.5289 -0.33845,-0.20918 -0.81067,-1.26948 -1.04935,-2.35623 -0.23869,-1.08675 -0.63678,-1.94778 -0.88463,-1.91341 -0.24785,0.0344 -1.33564,0.027 -2.41731,-0.0164 -1.4648,-0.0588 -1.77395,-0.27166 -1.21148,-0.83414 0.41536,-0.41535 1.30036,-0.54599 1.96667,-0.2903 1.46569,0.56244 1.87493,0.53618 1.88835,-0.12117 0.006,-0.275 0.24832,-0.875 0.53935,-1.33334 0.39975,-0.62956 -0.36182,-0.83333 -3.11446,-0.83333 -3.37369,0 -3.61647,0.10375 -3.27734,1.40058 0.2839,1.08563 0.0973,1.34797 -0.82999,1.16666 -0.65793,-0.12865 -1.29327,-0.87168 -1.41186,-1.65119 -0.20289,-1.33358 0.12427,-1.43512 5.53943,-1.71934 5.36752,-0.28173 5.85753,-0.43058 7.27685,-2.21058 0.83699,-1.04968 1.38476,-2.13025 1.21726,-2.40126 -0.16749,-0.27101 0.0467,-0.70982 0.47602,-0.97515 0.48748,-0.30128 0.60195,-0.19342 0.30486,0.28727 -0.26647,0.43117 -0.0919,0.77416 0.397,0.77988 0.71148,0.008 0.70965,0.11357 -0.01,0.56979 -0.70945,0.44981 -0.65776,0.78442 0.26355,1.70572 0.9213,0.9213 1.25591,0.973 1.70571,0.26354 0.80697,-1.27277 0.70691,-0.22386 -0.16018,1.6792 -0.4071,0.89348 -1.5321,1.96247 -2.5,2.37553 -1.43821,0.61377 -1.57707,0.59674 -0.75982,-0.0932 0.55,-0.46429 0.95961,-1.29417 0.91023,-1.84417 -0.0494,-0.55 -0.12896,-1.6 -0.17687,-2.33333 -0.0704,-1.07746 -0.20464,-1.14754 -0.69958,-0.36517 -0.33686,0.5325 -0.45996,1.21493 -0.27357,1.51652 0.18639,0.30159 -0.0448,0.46592 -0.51369,0.36517 -0.46892,-0.10076 -0.87081,0.11681 -0.89309,0.48348 -0.0838,1.37954 -1.19148,2.41022 -2.18183,2.03019 -0.86628,-0.33243 -0.89021,-0.2294 -0.15305,0.65883 0.4806,0.57908 0.59803,0.96095 0.26097,0.84859 -0.51974,-0.17324 -1.06139,0.40813 -0.89665,0.96239 0.0272,0.0917 0.18483,0.90364 0.35017,1.80439 0.3308,1.80206 1.32582,2.66978 3.07937,2.6854 0.78815,0.007 1.03138,-0.35391 0.77932,-1.15646 -0.20154,-0.64166 0.53961,0.6266 1.64699,2.81837 2.29761,4.54752 2.41098,5.66052 0.17053,1.67417 z m 103.91106,1.65843 c -0.48364,-0.58274 -0.60355,-1.00708 -0.26649,-0.94297 0.33707,0.0641 1.02458,0.081 1.52781,0.0376 0.77551,-0.0669 0.77551,-0.25039 0,-1.20377 -0.812,-0.99825 -0.76669,-1.0691 0.40269,-0.62965 1.15549,0.43423 1.12068,0.2855 -0.28288,-1.20852 -1.35766,-1.44517 -1.42518,-1.70368 -0.44497,-1.70368 0.63556,0 0.99223,-0.26426 0.79262,-0.58725 -0.19962,-0.32299 0.53267,-1.71424 1.62732,-3.09167 1.09464,-1.37743 1.99026,-2.28147 1.99026,-2.00899 0,0.27249 -0.74321,1.37869 -1.65157,2.45822 -1.37278,1.63145 -1.51906,2.17498 -0.86657,3.21978 0.43176,0.69135 1.03953,1.0997 1.35061,0.90744 0.31109,-0.19226 0.17604,-0.83044 -0.3001,-1.41819 -0.65886,-0.8133 -0.66538,-0.94824 -0.0273,-0.56481 0.86107,0.51741 3.06152,-1.12568 2.3972,-1.78999 -0.20214,-0.20215 0.30906,-0.1906 1.136,0.0256 0.98884,0.25859 1.35042,0.14545 1.05626,-0.33051 -0.65076,-1.05294 2.12996,-1.73991 3.25692,-0.80461 0.5248,0.43555 1.38741,1.66033 1.91692,2.72175 0.80025,1.60415 0.80923,1.92985 0.0532,1.92985 -0.50025,0 -1.12361,0.34635 -1.38524,0.76967 -0.29472,0.47687 -0.18288,0.58871 0.29399,0.29399 0.42332,-0.26163 0.76967,-0.15798 0.76967,0.23033 0,1.46749 -1.90786,0.61933 -3.60144,-1.60107 -1.96826,-2.58052 -3.21163,-2.52699 -4.37437,0.18832 -0.42051,0.98198 -1.60306,2.77029 -2.62789,3.97401 -1.66203,1.95215 -1.95832,2.07412 -2.74266,1.12905 z m 11.57925,-6.00565 c -0.20655,-0.53826 -0.0434,-0.97865 0.36245,-0.97865 0.4059,0 0.73799,-0.3321 0.73799,-0.73799 0,-0.4059 -0.4464,-0.5667 -0.992,-0.35733 -0.5456,0.20937 -0.9206,0.054 -0.83333,-0.34534 0.0873,-0.3993 -0.17937,-0.85119 -0.59253,-1.00418 -1.33223,-0.49335 -1.61107,1.82203 -0.4121,3.42188 1.23342,1.64581 2.36087,1.64686 1.72952,0.002 z m -132.13519,-0.60893 c -0.0748,-4.01332 0.0418,-7.11913 0.25911,-6.9018 0.21732,0.21733 0.4216,1.32595 0.45395,2.46361 0.0359,1.26131 0.40944,2.06847 0.95736,2.06847 0.4942,0 0.89854,0.6 0.89854,1.33333 0,0.78633 -0.44444,1.33334 -1.08333,1.33334 -0.81584,0 -1.00341,0.45267 -0.75965,1.83333 0.17803,1.00833 0.11812,2.58333 -0.13312,3.5 -0.25419,0.92738 -0.51716,-1.57004 -0.59286,-5.63028 z m 26.9023,5.66525 c -1.1,-0.74774 -1.625,-1.3615 -1.16667,-1.36391 0.45833,-0.002 0.87283,-0.82939 0.9211,-1.83773 0.0764,-1.59616 0.14109,-1.53148 0.5,0.5 l 0.41223,2.33334 4.16667,-0.0287 c 2.29167,-0.0158 4.16667,0.2092 4.16667,0.5 0,0.29079 -0.525,0.53202 -1.16667,0.53605 -0.64167,0.004 -2.21667,0.1678 -3.5,0.36392 -1.68681,0.25777 -2.88749,-0.0201 -4.33333,-1.00295 z m 43.26509,-2.64873 c 0.0485,-3.0448 0.33946,-4.37006 1.00781,-4.59096 0.64284,-0.21247 0.80858,0.0308 0.52482,0.77025 -0.26846,0.6996 0.0791,1.34508 0.98534,1.8301 1.27888,0.68443 1.37163,0.60049 1.07148,-0.96966 -0.18879,-0.98759 -0.0605,-1.55323 0.30164,-1.32945 0.34662,0.21423 0.42926,1.46074 0.18364,2.77002 -0.37582,2.00331 -0.20044,2.56987 1.1068,3.5755 1.2367,0.95137 1.32525,1.198 0.43433,1.2098 -1.34763,0.0178 -2.97109,-1.50203 -3.54887,-3.32245 -0.70019,-2.20612 -1.57212,-1.50186 -1.86199,1.50394 -0.1588,1.64672 -0.24466,1.04067 -0.205,-1.44709 z m 9.74079,3.27679 c 0.6255,-0.38658 0.41588,-0.61542 -0.73114,-0.79815 -1.29751,-0.2067 -1.15285,-0.31807 0.74907,-0.57665 1.8087,-0.24591 2.35714,-0.0838 2.35714,0.69692 0,0.60632 -0.65698,1.0583 -1.626,1.11863 -1.08301,0.0674 -1.33316,-0.0798 -0.74907,-0.44075 z m 15.47982,-13.10111 0.18097,-13.22859 6.33333,-0.049 c 4.53146,-0.035 4.99049,0.0198 1.61343,0.19267 l -4.7199,0.24163 -0.90061,3.30733 c -0.49534,1.81903 -1.0882,3.30733 -1.31746,3.30733 -0.7165,0 -0.72411,14.55791 -0.008,15.00059 0.98013,0.60576 0.81023,2.28346 -0.34859,3.44228 -0.90795,0.90796 -0.99532,-0.37265 -0.83333,-12.21428 z m 2.17907,-10.22262 C 223.45244,157.24119 222.97064,156 221.96066,156 c -0.34503,0 -0.62732,0.9 -0.62732,2 0,2.26321 1.02811,2.6786 1.66477,0.67264 z m 2.57984,22.81716 c -0.41546,-0.26939 -0.95882,-2.28979 -1.20747,-4.48979 -0.24865,-2.2 -0.61196,-4.65795 -0.80737,-5.46211 -0.19541,-0.80416 -0.13167,-1.82395 0.14166,-2.2662 0.57555,-0.93127 2.25478,3.34533 1.71504,4.3678 -0.5554,1.05212 -0.0212,6.62978 0.72097,7.52717 0.77295,0.93467 0.56471,1.05422 -0.56283,0.32313 z M 82.888891,180.36266 c 0,-0.53387 0.254894,-0.81314 0.566431,-0.6206 0.311536,0.19254 0.393831,0.62935 0.182877,0.97068 -0.539083,0.87225 -0.749308,0.77404 -0.749308,-0.35008 z m 46.444449,0.0262 c 0,-0.51944 -0.375,-1.07035 -0.83334,-1.22424 -0.65121,-0.21865 -0.66186,-0.63146 -0.0487,-1.88889 0.43152,-0.885 0.93283,-2.05909 1.11403,-2.60909 0.1812,-0.55 0.35314,0.725 0.38208,2.83334 0.0289,2.10833 -0.0974,3.83333 -0.2807,3.83333 -0.18333,0 -0.33333,-0.425 -0.33333,-0.94445 z m 18.7193,-0.11111 c 0.032,-0.77663 0.18996,-0.9346 0.40277,-0.40277 0.19258,0.48125 0.1689,1.05625 -0.0526,1.27777 -0.22153,0.22153 -0.37909,-0.17222 -0.35014,-0.875 z m 61.3347,0.12063 c -0.61945,-0.74639 -0.36703,-1.22609 1.25171,-2.37873 1.11519,-0.79409 2.02762,-1.13295 2.02762,-0.75303 0,0.37993 -0.79283,1.10618 -1.76184,1.6139 -1.12618,0.59006 -1.48697,1.093 -1,1.39397 0.41901,0.25896 0.76184,0.13543 0.76184,-0.27451 0,-0.40995 0.3049,-0.55693 0.67754,-0.32662 0.72811,0.44999 0.26506,1.65995 -0.63525,1.65995 -0.30013,0 -0.89486,-0.42072 -1.32162,-0.93493 z m -27.18107,-2.62959 c -1.16989,-1.50649 -1.89207,-2.89576 -1.60484,-3.08727 0.28724,-0.19152 0.70669,-1.29705 0.93211,-2.45673 0.43938,-2.26032 -0.83015,-4.07155 -2.24217,-3.19887 -0.55767,0.34465 -0.52015,0.6305 0.13746,1.04718 0.69893,0.44286 0.70977,0.57545 0.0477,0.58333 -0.67279,0.008 -0.69092,0.33234 -0.0844,1.51021 0.76956,1.4945 0.76781,1.49508 -0.47655,0.15801 -0.68692,-0.73809 -1.65064,-1.85101 -2.14162,-2.47315 -0.78318,-0.99241 -0.72719,-1.09929 0.45647,-0.87134 1.34535,0.25909 1.39391,0.0379 0.84556,-3.85286 -0.0418,-0.29664 -0.34202,-0.37495 -0.66714,-0.17401 -0.89777,0.55485 -2.14256,-1.29014 -2.76695,-4.10108 -0.5072,-2.28335 -0.46986,-2.39789 0.39928,-1.22482 0.52734,0.71175 0.9588,1.57735 0.9588,1.92356 0,0.3462 0.675,1.31061 1.5,2.14312 2.11291,2.13214 3.2078,3.54545 3.11566,4.02177 -0.0435,0.22481 0.7044,1.22651 1.66197,2.226 0.95757,0.99948 1.58802,1.97026 1.40099,2.15728 -0.18702,0.18702 0.40878,1.04352 1.324,1.90332 0.91523,0.85981 1.66404,2.13072 1.66404,2.82424 0,0.69352 0.34366,1.91623 0.76368,2.71712 0.75576,1.4411 0.74902,1.44317 -0.65095,0.20041 -0.77804,-0.69067 -1.22534,-1.56202 -0.994,-1.93634 0.24304,-0.39325 0.0911,-0.47691 -0.35993,-0.19817 -0.4293,0.26532 -0.64545,0.701 -0.48033,0.96817 0.16512,0.26717 0.095,0.81071 -0.15579,1.20787 -0.27326,0.43272 -1.30846,-0.3756 -2.58308,-2.01695 z m 2.01388,-1.2853 c -0.27843,-0.4505 -0.018,-0.54858 0.71246,-0.26829 0.97641,0.37468 0.93548,0.13868 -0.26937,-1.55338 -1.30687,-1.83533 -3.32949,-2.94588 -2.28384,-1.25398 0.25195,0.40767 0.15743,0.93267 -0.21006,1.16667 -1.0846,0.69066 0.2706,3.47062 1.46791,3.01117 0.56197,-0.21565 0.82427,-0.71163 0.5829,-1.10219 z m -100.44237,2.40537 c -0.244444,-0.24444 -0.444444,-0.75444 -0.444444,-1.13333 0,-0.41774 0.310514,-0.37837 0.788889,0.1 0.433889,0.43389 0.633889,0.94389 0.444444,1.13333 -0.189444,0.18945 -0.544444,0.14445 -0.788889,-0.1 z m 177.31448,-0.55555 c 0.21105,-0.55 0.50164,-1 0.64574,-1 0.1441,0 0.26201,0.45 0.26201,1 0,0.55 -0.29059,1 -0.64575,1 -0.35515,0 -0.47306,-0.45 -0.262,-1 z m -112.80306,-11.16667 0.0441,-11.5 6.5,-0.19081 6.5,-0.1908 -0.0665,2.1908 c -0.0609,2.00805 -0.10496,2.05177 -0.52811,0.52414 -0.43603,-1.57412 -0.75302,-1.67758 -5.70899,-1.86333 -5.56698,-0.20865 -6.3332,0.15427 -6.3529,3.00908 -0.008,1.12804 0.26668,1.3781 1.15646,1.05362 1.11111,-0.40519 1.11111,-0.36201 0,0.90675 -1.20359,1.37437 -1.65912,5.27693 -0.53485,4.58209 0.35995,-0.22246 0.48607,0.26261 0.2931,1.12732 -1.06129,4.7557 -1.05389,6.55501 0.0338,8.21502 0.88785,1.35503 0.96031,1.93042 0.3376,2.68074 -0.4361,0.52546 -1.00103,0.95538 -1.25541,0.95538 -0.25438,0 -0.44265,-5.175 -0.41837,-11.5 z m 22.01025,9.94055 c 1.10308,-0.80659 1.11538,-0.93329 0.12742,-1.31241 -1.34738,-0.51703 -1.43365,-2.1883 -0.13862,-2.68525 0.5252,-0.20154 1.09339,-1.35864 1.26265,-2.57133 0.16926,-1.21269 0.27715,-0.40489 0.23974,1.79511 -0.0679,3.99682 -0.65722,5.66667 -1.99968,5.66667 -0.39186,0 -0.16303,-0.40176 0.50849,-0.89279 z m -85.488685,-1.70541 c 0.03235,-1.13766 0.345254,-2.06847 0.69535,-2.06847 0.350097,0 0.467545,-0.44039 0.260996,-0.97865 -0.206549,-0.53826 -0.06869,-1.1683 0.306362,-1.40009 1.044131,-0.64531 1.17229,-0.11905 0.416936,1.71207 -0.378132,0.91667 -0.799948,2.24845 -0.937367,2.95952 -0.408542,2.11397 -0.805352,1.99402 -0.742277,-0.22438 z m 7.491804,-0.20855 c -0.258522,-1.17705 -1.021697,-3.42705 -1.695945,-5 -0.674248,-1.57296 -0.960403,-2.85992 -0.6359,-2.85992 0.324503,0 0.786923,0.89656 1.0276,1.99235 0.53754,2.44741 1.262033,2.96718 2.334557,1.67486 0.655813,-0.7902 0.619435,-1.06069 -0.184123,-1.36904 -0.578957,-0.22217 -0.866588,-0.89985 -0.681818,-1.60641 0.479477,-1.83352 -1.014589,-4.28713 -2.074769,-3.40726 -0.466499,0.38716 -1.06189,0.49022 -1.32309,0.22902 -0.2612,-0.2612 -0.778249,-0.0336 -1.148998,0.50579 -0.503335,0.73227 -0.560498,0.57957 -0.225662,-0.6028 0.30501,-1.07705 0.21237,-1.43759 -0.289662,-1.12732 -0.451286,0.27891 -0.73809,-0.0947 -0.73809,-0.96144 0,-1.09601 0.291253,-1.32516 1.283854,-1.01012 0.807335,0.25624 1.501366,0.0188 1.869883,-0.6397 0.448509,-0.80144 0.936866,-0.14342 2.081096,2.80411 0.822287,2.11821 1.932131,4.70285 2.466318,5.74365 0.976516,1.90261 0.741759,3.46006 -0.413883,2.74584 -0.647405,-0.40012 -0.91891,0.9703 -0.699051,3.52847 0.191077,2.22327 -0.412525,1.81757 -0.952317,-0.64008 z m 75.030771,0.80675 c 0,-0.73334 0.23571,-1.33334 0.52381,-1.33334 0.28809,0 0.52381,0.6 0.52381,1.33334 0,0.73333 -0.23572,1.33333 -0.52381,1.33333 -0.2881,0 -0.52381,-0.6 -0.52381,-1.33333 z m 21.00928,-0.4193 c -0.59728,-0.59727 -0.91871,-1.52181 -0.71429,-2.05452 0.20442,-0.53271 0.40313,-3.56903 0.44158,-6.74738 0.0641,-5.3029 0.13277,-5.58665 0.83333,-3.44547 0.41989,1.28333 0.98941,2.68126 1.2656,3.1065 0.27618,0.42525 0.29873,1.30331 0.0501,1.95126 -0.4212,1.09765 -0.48784,1.09038 -0.97602,-0.1065 -0.34549,-0.84705 -0.48928,-0.1838 -0.42214,1.94725 0.0894,2.83692 0.20837,3.08612 0.97386,2.03925 0.76928,-1.05205 0.87205,-0.86332 0.87205,1.60149 0,2.99607 -0.59719,3.43499 -2.32405,1.70812 z m 27.6676,0.54662 c -0.006,-0.47998 -0.28948,-0.70008 -0.63081,-0.48913 -0.34134,0.21096 -0.82168,0.0582 -1.06744,-0.33944 -0.24576,-0.39764 -0.87343,-0.55929 -1.39482,-0.35921 -0.75962,0.2915 -0.80581,0.0981 -0.23245,-0.97322 0.39354,-0.73535 1.00049,-1.16089 1.34876,-0.94565 0.67565,0.41758 0.9202,-1.33261 0.6781,-4.85305 -0.11906,-1.73118 0.0621,-2.08471 0.90309,-1.76201 1.38914,0.53307 1.32834,-0.0805 -0.35193,-3.55149 -0.97968,-2.02375 -1.63444,-2.70888 -2.16666,-2.26717 -0.71376,0.59236 -1.16312,0.74638 -2.17768,0.74638 -0.22823,0 -0.0355,0.45725 0.42833,1.01611 0.46381,0.55886 0.70953,1.14988 0.54603,1.31337 -0.34636,0.34637 -2.16834,-1.78315 -2.34897,-2.74546 -0.0676,-0.36014 0.5324,-0.63887 1.33333,-0.61941 0.80093,0.0195 1.45624,-0.26461 1.45624,-0.63128 0,-0.36667 -0.64272,-0.65124 -1.42827,-0.63239 -0.92105,0.0221 -1.30772,-0.27988 -1.08881,-0.85035 0.2589,-0.6747 0.55828,-0.70301 1.2616,-0.11931 0.50718,0.42092 0.92215,0.53208 0.92215,0.24702 0,-1.05034 2.65739,1.92885 3.97453,4.45584 1.47819,2.83598 1.92242,11.3288 0.69213,13.23253 -0.46959,0.72664 -0.64904,0.76144 -0.65645,0.12732 z M 81.385967,175.925 c -0.02895,-0.22457 0.847369,-2.59083 1.947369,-5.25836 1.1,-2.66753 2.027056,-5.33379 2.060125,-5.92502 0.03307,-0.59124 0.332864,-0.13387 0.66621,1.01636 0.439046,1.51497 0.340011,2.6042 -0.35934,3.9522 -0.530983,1.02348 -0.813072,2.10737 -0.626865,2.40866 0.186208,0.30129 -0.01124,0.5478 -0.438778,0.5478 -0.465079,0 -0.598919,-0.46865 -0.333181,-1.16666 0.341244,-0.89635 0.261227,-0.98517 -0.345341,-0.38334 -0.434223,0.43084 -0.789497,1.55036 -0.789497,2.48784 0,0.93748 -0.236877,1.55811 -0.526393,1.37918 -0.289516,-0.17893 -0.678332,0.0515 -0.864035,0.51216 -0.185703,0.46062 -0.361326,0.65375 -0.390274,0.42918 z m 70.679483,-2.92502 c -0.0933,-5.90619 -9.8e-4,-8.62003 0.30356,-8.92456 0.16371,-0.16372 0.29766,0.82004 0.29766,2.18612 0,1.4861 0.26779,2.31829 0.66667,2.07177 C 153.7,168.10673 154,168.22132 154,168.58798 c 0,0.36667 -0.32849,0.86969 -0.72998,1.11782 -0.44753,0.27659 0.004,0.93983 1.16667,1.71413 1.87914,1.25132 1.88149,1.26137 0.25468,1.08819 -1.33646,-0.14226 -1.7286,0.19734 -2.10762,1.82522 -0.38967,1.67365 -0.47424,1.45608 -0.5183,-1.33333 z m 39.32052,-0.0556 c 0.032,-0.77663 0.18996,-0.9346 0.40278,-0.40278 0.19258,0.48125 0.16889,1.05625 -0.0526,1.27778 -0.22153,0.22153 -0.3791,-0.17222 -0.35015,-0.875 z m 35.2807,-0.89753 c 0,-0.36667 0.5685,-0.97092 1.26333,-1.34278 0.95632,-0.51181 1.48286,-0.41016 2.16667,0.41829 0.77057,0.93356 0.75637,1.04272 -0.0967,0.74274 -0.55,-0.19341 -1.525,-0.0816 -2.16667,0.24838 -0.73336,0.37718 -1.16667,0.35243 -1.16667,-0.0666 z m 5.08736,-0.18826 c 0.17857,-0.28893 0.88196,-0.52532 1.5631,-0.52532 0.68114,0 1.38975,-0.375 1.57469,-0.83333 0.26901,-0.66667 0.34678,-0.66667 0.38889,0 0.0754,1.19426 2.05263,1.03372 2.05263,-0.16667 0,-0.76667 -0.89444,-1.01264 -3.83333,-1.05416 -6.29885,-0.089 -7.72681,-0.29292 -8.01048,-1.14394 -0.14854,-0.44561 -0.51191,-0.66075 -0.80748,-0.47807 -0.6952,0.42966 -1.19938,-3.84973 -0.64081,-5.439 0.40122,-1.14155 0.45488,-1.13409 0.85327,0.11868 0.23381,0.73527 0.29915,1.99092 0.1452,2.79034 -0.51504,2.67438 1.08005,3.29769 8.84,3.4544 3.96727,0.0801 4.2006,0.17258 4,1.58508 -0.17725,1.24804 -0.7369,1.56025 -3.33169,1.85865 -1.71526,0.19726 -2.97255,0.12226 -2.79399,-0.16666 z m -74.76905,-0.50101 c 0.21834,-0.35329 -0.13895,-1.17829 -0.79399,-1.83333 -1.14354,-1.14353 -1.00084,-1.19579 3.58159,-1.31179 4.6021,-0.11649 4.7878,-0.0601 5.19911,1.57867 0.2346,0.93471 0.27654,1.84947 0.0932,2.0328 -0.18334,0.18334 -0.53046,-0.45206 -0.77139,-1.412 -0.56497,-2.25103 -2.17287,-2.31666 -1.9272,-0.0787 0.17086,1.55654 -0.014,1.66667 -2.79769,1.66667 -1.74211,0 -2.81568,-0.26692 -2.58364,-0.64236 z m 4.22292,-1.53197 c 0.15406,-0.8 -0.20495,-1.15901 -1.15901,-1.15901 -0.95407,0 -1.38222,0.42815 -1.38222,1.38222 0,1.70843 2.20655,1.51462 2.54123,-0.22321 z m 6.09335,0.84099 c -0.0692,-0.91666 -0.0601,-1.96666 0.0202,-2.33333 0.0803,-0.36667 0.10441,-3.40369 0.0536,-6.74894 -0.0878,-5.77911 -0.0179,-6.10178 1.40382,-6.47356 1.91844,-0.50168 2.43458,-0.0409 0.60474,0.53989 -0.80455,0.25535 -1.38357,1.00817 -1.38357,1.79886 0,0.91352 0.31702,1.23808 0.96604,0.98903 0.64568,-0.24778 0.84312,-0.0503 0.59534,0.59534 -0.20388,0.53132 -0.65402,0.96604 -1.0003,0.96604 -0.34628,0 -0.56285,1.65 -0.48126,3.66667 0.0841,2.07912 0.45975,3.67109 0.86759,3.67688 0.39559,0.006 0.30582,0.27207 -0.19949,0.59213 -0.50531,0.32006 -0.76785,0.84046 -0.58342,1.15646 0.18442,0.31599 0.0939,1.17453 -0.20107,1.90787 -0.49165,1.22213 -0.54688,1.19433 -0.66219,-0.33334 z m -75.301247,0 c 0,-0.36666 0.317705,-0.66666 0.706011,-0.66666 0.388306,0 0.520601,0.3 0.293989,0.66666 -0.226613,0.36667 -0.544318,0.66667 -0.706012,0.66667 -0.161693,0 -0.293988,-0.3 -0.293988,-0.66667 z m 99.217437,-4.73575 c -0.11959,-2.97133 0.003,-5.74633 0.27236,-6.16667 0.26938,-0.42033 0.49438,2.01075 0.5,5.40242 0.006,3.39167 -0.11695,6.16667 -0.27236,6.16667 -0.15542,0 -0.38042,-2.43109 -0.5,-5.40242 z m 61.71124,3.68123 c 0.22256,-0.57999 0.40466,-1.1977 0.40466,-1.37268 0,-0.17499 0.3,-0.13274 0.66667,0.0939 1.06224,0.6565 0.77144,2.33333 -0.40466,2.33333 -0.70302,0 -0.93221,-0.36253 -0.66667,-1.05452 z m -83.16602,-1.28857 c 0.209,-0.54463 0.61457,-0.99024 0.90126,-0.99024 0.2867,0 0.4796,-0.51351 0.42868,-1.14113 -0.0549,-0.67666 0.45009,-1.21457 1.24074,-1.32157 0.73333,-0.0993 0.95833,-0.0108 0.5,0.19668 -0.45833,0.20742 -0.83333,0.87997 -0.83333,1.49454 0,0.61458 -0.5889,1.48519 -1.30867,1.93469 -1.09461,0.6836 -1.24651,0.6553 -0.92868,-0.17297 z m 87.48908,-0.11308 c 1.00572,-1.95718 0.94617,-2.24459 -0.3611,-1.74295 -0.77404,0.29703 -0.95517,0.17622 -0.59923,-0.3997 0.28057,-0.45398 0.85479,-0.70657 1.27603,-0.56132 0.42125,0.14525 1.2909,-0.2843 1.93257,-0.95455 0.64166,-0.67025 1.01666,-1.21864 0.83333,-1.21864 -0.18333,0 0.26667,-0.6 1,-1.33334 1.9466,-1.9466 1.67635,-2.71688 -0.66667,-1.9001 -1.1,0.38346 -2,0.93576 -2,1.22733 0,0.29157 -0.45367,0.70421 -1.00816,0.91699 -0.55449,0.21278 0.23155,-1.25512 1.74676,-3.26201 1.51521,-2.00688 2.90562,-3.64887 3.0898,-3.64887 0.18417,0 -0.0386,0.45 -0.49506,1 -0.66213,0.79781 -0.66213,1.20219 0,2 0.88462,1.0659 2.33007,1.40675 1.70984,0.40319 -0.20287,-0.32825 0.0744,-0.76689 0.61608,-0.97477 0.55952,-0.2147 0.81501,-0.82077 0.59151,-1.40319 -0.21638,-0.56388 -0.0613,-1.02523 0.34458,-1.02523 1.41027,0 0.71484,1.49166 -3.37055,7.22957 -4.48792,6.30328 -5.79293,7.89176 -4.63973,5.64759 z m 4.74827,-9.17115 c 0,-0.16169 -0.3,-0.4794 -0.66667,-0.70601 -0.36667,-0.22661 -0.66667,-0.0943 -0.66667,0.29399 0,0.3883 0.3,0.70601 0.66667,0.70601 0.36667,0 0.66667,-0.1323 0.66667,-0.29399 z m -140.95602,9.03183 c -0.2508,-0.40581 -0.16928,-0.73784 0.18116,-0.73784 0.35145,0 0.5562,-1.69548 0.45661,-3.78091 -0.13075,-2.73788 -0.51474,-4.02526 -1.39191,-4.66667 C 119.6236,158.3986 119.42892,158 119.85722,158 c 1.32572,0 2.6216,2.85822 2.72033,6.00001 0.10012,3.18588 -0.72573,5.37827 -1.53356,4.07117 z m 92.08729,-0.33326 c -0.27279,-0.69415 -0.33893,-1.41915 -0.14697,-1.61111 0.60804,-0.60804 1.14304,0.38837 0.88827,1.65435 -0.2335,1.16022 -0.26916,1.15814 -0.7413,-0.0432 z m 36.11987,-0.32392 c -0.5952,-0.59437 -1.31347,-1.82831 -1.59616,-2.7421 -0.4602,-1.4876 -0.39928,-1.56625 0.58219,-0.7517 0.60289,0.50035 1.12687,0.648 1.1644,0.3281 0.0375,-0.31989 0.31457,0.46634 0.61563,1.74719 0.30107,1.28084 0.49536,2.36714 0.43176,2.41399 -0.0636,0.0469 -0.60261,-0.40112 -1.19782,-0.99548 z m -131.54619,-1.08066 c 0.27356,-0.73333 0.55235,-2.06683 0.61952,-2.96332 0.0672,-0.8965 0.49164,-1.75316 0.94326,-1.90371 0.57811,-0.1927 0.75866,0.48704 0.61004,2.29666 -0.11611,1.4137 -0.47757,2.46975 -0.80324,2.34676 -0.32567,-0.12298 -0.87897,0.17702 -1.22956,0.66667 -0.44411,0.62028 -0.48657,0.48591 -0.14002,-0.44306 z m 79.46171,-0.13716 c 1.60141,-0.30844 1.95168,-1.47783 0.79048,-2.63903 -0.50159,-0.50159 -0.44181,-0.98026 0.20397,-1.63334 1.11427,-1.12685 2.10559,-3.3514 1.89711,-4.25714 -0.0844,-0.36667 0.21525,-0.30438 0.6659,0.13841 0.61076,0.60011 0.62843,1.03515 0.0694,1.70871 -0.41247,0.497 -0.8859,1.99976 -1.05206,3.33947 -0.39487,3.18358 -0.85039,3.83225 -2.61416,3.72262 -1.46018,-0.0908 -1.46017,-0.0909 0.0393,-0.3797 z m 53.77618,-1.19633 c 0.21155,-1.16663 -0.0801,-1.87147 -0.97196,-2.34876 -1.06498,-0.56996 -1.213,-0.48783 -0.90146,0.50016 0.34564,1.09609 0.30556,1.10096 -0.55087,0.0669 -0.69324,-0.83704 -1.08097,-0.9181 -1.55442,-0.325 -0.34694,0.43461 -0.5584,0.66406 -0.46992,0.50988 0.0885,-0.15418 -0.12125,-0.62028 -0.46608,-1.03578 -0.44098,-0.53134 -0.0157,-0.80203 1.43363,-0.91246 2.11225,-0.16095 4.53824,1.39494 4.53824,2.91057 0,1.45311 1.80866,1.57869 3.2602,0.22638 0.77356,-0.72068 1.40646,-1.01565 1.40646,-0.65549 0,1.02721 -2.80378,2.73044 -4.4947,2.73044 -1.26965,0 -1.47971,-0.28487 -1.22912,-1.66682 z m -107.14317,-1.89363 c -0.18864,-0.49159 -0.0753,-1.31659 0.2518,-1.83334 0.43286,-0.68378 0.59755,-0.44047 0.60498,0.89379 0.0111,1.99082 -0.31581,2.3493 -0.85678,0.93955 z m 5.86699,-0.43955 C 149.44006,162.3 149.57235,162 149.96066,162 c 0.38831,0 0.70601,0.3 0.70601,0.66667 0,0.36667 -0.13229,0.66667 -0.29399,0.66667 -0.16169,0 -0.4794,-0.3 -0.70601,-0.66667 z M 152,161.70602 c 0,-0.89503 0.24572,-1.77919 0.54604,-1.9648 0.30032,-0.1856 0.41627,0.54669 0.25767,1.62733 C 152.45402,163.75114 152,163.94178 152,161.70602 Z m 43.4594,-1.83334 c -0.0713,-2.14459 0.18825,-3.98824 0.59694,-4.24082 1.06294,-0.65694 11.94367,0.37615 11.94367,1.134 0,0.35539 -0.26551,0.48208 -0.59001,0.28152 -0.32451,-0.20055 -3.01052,-0.48538 -5.96891,-0.63295 l -5.37891,-0.2683 -0.23836,3.76027 -0.23837,3.76027 z m -25.70183,1.60773 c -0.24528,-0.39687 0.30912,-1.53634 1.23201,-2.53216 1.37412,-1.4827 1.53281,-2.00411 0.87635,-2.8794 -0.68249,-0.91001 -0.65779,-0.94005 0.16623,-0.20218 1.08642,0.97284 1.25693,2.13919 0.45808,3.13333 -0.29464,0.36667 -0.92968,1.23712 -1.41121,1.93433 -0.56029,0.81126 -1.03606,1.00787 -1.32146,0.54608 z m -53.0909,-0.81374 c -0.55,-0.35544 -1.75,-0.68297 -2.66667,-0.72785 -1.11981,-0.0548 -0.71733,-0.29369 1.22668,-0.72798 2.62761,-0.58701 4.93955,-0.11133 2.93584,0.60404 -0.46062,0.16445 -0.66792,0.57338 -0.46066,0.90873 0.47648,0.77097 0.22445,0.7571 -1.03519,-0.0569 z m 22.36075,0.0444 C 138.78573,160.31996 137.95569,160 137.18288,160 c -2.18035,0 -1.08322,-0.57277 1.6805,-0.87733 2.19651,-0.24206 2.38782,-0.14989 1.6645,0.80192 -0.44949,0.59148 -0.8721,1.17037 -0.93914,1.28644 -0.067,0.11606 -0.31963,-0.10894 -0.56132,-0.5 z m 68.30592,-0.0444 c -0.55,-0.35544 -1.875,-0.65084 -2.94444,-0.65646 -2.75842,-0.0145 -1.77329,-0.6514 1.51323,-0.97836 2.38274,-0.23704 2.76454,-0.0971 2.76454,1.01323 0,1.48111 -0.002,1.48201 -1.33333,0.62159 z m -101.2,-1.46667 c -0.94079,-0.94078 -1.04549,-1.86666 -0.21109,-1.86666 0.3239,0 0.74581,0.6 0.93759,1.33333 0.40694,1.55617 0.34316,1.603 -0.7265,0.53333 z m 4.40833,0.3446 c 0.48125,-0.19258 1.05625,-0.1689 1.27778,0.0526 0.22153,0.22152 -0.17222,0.37909 -0.875,0.35014 -0.77663,-0.032 -0.9346,-0.18996 -0.40278,-0.40277 z m 32.32886,-0.54388 c -0.43788,-0.47565 -1.18788,-1.00432 -1.66667,-1.17483 -0.47879,-0.1705 -0.71604,-0.48057 -0.52723,-0.68902 0.18881,-0.20845 1.08433,0.17996 1.99004,0.86313 0.90571,0.68318 1.50123,1.38241 1.32337,1.55384 -0.17785,0.17143 -0.68163,-0.0775 -1.11951,-0.55312 z m 45.13968,-1.21166 c -0.01,-2.38429 0.10509,-2.53102 1.82313,-2.33334 1.37636,0.15837 1.89081,0.62638 2.06394,1.87762 0.12684,0.91666 0.004,1.44427 -0.27199,1.17245 -0.27643,-0.27182 -0.90521,-0.16009 -1.39728,0.2483 -0.49207,0.40838 -0.89926,0.48077 -0.90488,0.16088 -0.006,-0.3199 -0.30102,-0.13163 -0.65646,0.41837 -0.4796,0.74213 -0.64888,0.34392 -0.65646,-1.54428 z m 3.32313,-1.26426 c 0,-0.28864 -0.6,-0.5248 -1.33333,-0.5248 -0.73334,0 -1.33334,0.28136 -1.33334,0.62524 0,0.34388 0.6,0.58004 1.33334,0.5248 0.73333,-0.0552 1.33333,-0.3366 1.33333,-0.62524 z m -88,1.18122 c 0,-0.89503 0.24571,-1.77919 0.54603,-1.9648 0.30032,-0.1856 0.41627,0.54669 0.25767,1.62733 -0.34969,2.38259 -0.8037,2.57323 -0.8037,0.33747 z m 22.74474,0.1481 c 0.55464,-1.03635 0.53195,-1.23113 -0.0981,-0.84177 -0.53025,0.32771 -0.71129,0.17958 -0.51271,-0.41955 0.38613,-1.16502 10.83144,-1.64632 13.24264,-0.61019 1.21187,0.52076 0.1331,0.59524 -4.25572,0.29383 -5.49782,-0.37757 -5.90175,-0.31715 -6.2283,0.9316 -0.19207,0.73445 -0.91627,1.48365 -1.60934,1.66489 -1.08331,0.28329 -1.15888,0.14033 -0.53852,-1.01881 z m -37.669353,0.0239 c 0.192541,-0.31154 0.629344,-0.39383 0.970675,-0.18288 0.872254,0.53908 0.774038,0.74931 -0.350074,0.74931 -0.53387,0 -0.813141,-0.25489 -0.620601,-0.56643 z m 26.924613,-0.54148 c -0.55,-0.3572 -2.35,-0.68395 -4,-0.72611 -5.799,-0.14819 -6.64088,-1.14209 -1,-1.18057 3.18385,-0.0217 6.13938,0.3327 7.33333,0.8794 1.1,0.50368 1.64954,0.94015 1.22119,0.96993 -0.42834,0.0298 -1.17834,0.201 -1.66666,0.38048 -0.48833,0.17948 -1.33786,0.0341 -1.88786,-0.32313 z m 54.66667,-16.22542 c 0,-3.92741 0.26504,-6.44445 0.6786,-6.44445 0.63707,0 0.24774,11.92462 -0.41175,12.61111 -0.14677,0.15278 -0.26685,-2.62222 -0.26685,-6.16666 z M 162.55,143 c -0.33588,-4.79829 -0.30267,-5.66666 0.21667,-5.66666 0.31167,0 0.56667,1.65 0.56667,3.66666 0,3.67954 -0.56482,5.12163 -0.78334,2 z m -0.0962,-7.59142 c 0.18095,-0.69195 0.003,-1.45966 -0.39575,-1.70601 -0.39861,-0.24636 -0.7152,-0.80522 -0.70354,-1.24191 0.0117,-0.43669 0.46166,-0.21165 1,0.5001 1.0856,1.43529 1.31509,3.70591 0.37454,3.70591 -0.33233,0 -0.4562,-0.56614 -0.27525,-1.25809 z M 159.5,133.32319 c -1.19166,-1.08408 -2.16666,-2.24319 -2.16666,-2.5758 0,-0.3326 -0.45,-0.77742 -1,-0.98847 -0.55,-0.21106 -1,-0.0931 -1,0.26201 0,0.35516 0.35,0.64574 0.77778,0.64574 0.42777,0 0.63231,0.14546 0.45452,0.32325 -0.17779,0.17779 -1.43147,-0.24174 -2.78595,-0.9323 -3.27707,-1.67074 -12.32769,-2.89773 -18.11302,-2.45556 -3.51184,0.2684 -4.36156,0.17942 -3.43371,-0.35959 0.67813,-0.39394 4.45149,-0.72496 8.38526,-0.7356 6.25094,-0.0169 9.49987,0.46532 13.38178,1.98619 0.55,0.21549 1.15,0.43245 1.33334,0.48214 2.32197,0.62936 3.33508,1.307 3.34354,2.2364 0.009,0.96789 0.0988,0.98459 0.65646,0.12174 0.43083,-0.66667 0.64965,-0.72222 0.65646,-0.16667 0.006,0.45833 -0.0648,0.95184 -0.15646,1.09668 -0.0917,0.14483 0.40483,0.89483 1.10332,1.66666 1.81044,2.00052 1.0992,1.7001 -1.43666,-0.60682 z m 11.26497,0.73757 c -0.62572,-0.38672 -0.54472,-0.74178 0.33145,-1.45294 0.99964,-0.81137 1.08084,-0.81062 0.58886,0.005 -0.43349,0.71907 -0.29089,0.83926 0.59322,0.5 0.64014,-0.24565 1.27994,-0.44663 1.42177,-0.44663 0.14184,0 0.0852,-0.45 -0.12585,-1 -0.41336,-1.07721 0.76507,-1.40207 1.39408,-0.38431 0.5552,0.89834 -3.21424,3.38981 -4.20353,2.7784 z m 5.00703,-2.51098 c -0.74273,-0.74273 -0.48563,-1.61901 0.41437,-1.41233 0.46917,0.10774 0.84417,-0.0594 0.83334,-0.3714 -0.0578,-1.66526 12.10779,-3.77004 18.82428,-3.2568 6.64842,0.50805 5.35622,1.18765 -2.39645,1.26036 -6.90964,0.0648 -14.1055,1.62001 -16.43288,3.55156 -0.4422,0.367 -1.0014,0.46987 -1.24266,0.22861 z"
         id="path31" />
      <path
         style="fill:#f17b0f"
         d="m 105.69678,212.7154 c -0.33016,-0.53422 4.42526,-4.51082 8.6495,-7.23292 2.744,-1.76823 11.11243,-5.4823 14.80953,-6.57275 4.75285,-1.40183 15.99326,-1.58501 20.20167,-0.3292 4.53453,1.35311 9.27952,3.5325 12.62361,5.79807 4.50484,3.05195 4.95031,3.10098 8.01341,0.88209 9.16931,-6.64222 20.51222,-9.16119 31.35736,-6.96368 5.30516,1.07496 15.98148,5.33812 15.98148,6.38156 0,0.27115 0.9,0.8658 2,1.32144 1.1,0.45563 2,1.03519 2,1.28791 0,0.25271 -1.98882,-0.50631 -4.4196,-1.68672 -15.46617,-7.51052 -28.15001,-7.7966 -41.24707,-0.93034 -2.3185,1.2155 -3.70995,2.50557 -4.57038,4.2374 -1.21362,2.44272 -1.30189,2.48611 -4.66042,2.29081 -2.81354,-0.1636 -3.46644,-0.43658 -3.66511,-1.5324 -0.35779,-1.97345 -1.8563,-3.39731 -5.6802,-5.39724 -6.96925,-3.64497 -14.50466,-5.06764 -22.25789,-4.20224 -5.36335,0.59865 -15.31064,3.70949 -17.43776,5.45336 -0.58387,0.47866 -1.8387,1.25743 -2.78852,1.73059 -0.94983,0.47317 -2.74983,1.75137 -4,2.84045 -3.03867,2.64711 -4.43425,3.39295 -4.90961,2.62381 z"
         id="path30" />
    </g>
  </g>
</svg>
